<?xml version="1.0" encoding="UTF-8" standalone="no"?>
<!-- Created with Inkscape (http://www.inkscape.org/) -->

<svg
   xmlns:osb="http://www.openswatchbook.org/uri/2009/osb"
   xmlns:dc="http://purl.org/dc/elements/1.1/"
   xmlns:cc="http://creativecommons.org/ns#"
   xmlns:rdf="http://www.w3.org/1999/02/22-rdf-syntax-ns#"
   xmlns:svg="http://www.w3.org/2000/svg"
   xmlns="http://www.w3.org/2000/svg"
   xmlns:sodipodi="http://sodipodi.sourceforge.net/DTD/sodipodi-0.dtd"
   xmlns:inkscape="http://www.inkscape.org/namespaces/inkscape"
   width="1161.9364"
   height="1092.2207"
   viewBox="0 0 307.429 288.98339"
   version="1.1"
   id="svg3765"
   inkscape:version="0.92.3 (2405546, 2018-03-11)"
   sodipodi:docname="logo22.svg">
  <defs
     id="defs3759">
    <linearGradient
       id="linearGradient4869"
       osb:paint="solid">
      <stop
         style="stop-color:#000000;stop-opacity:1;"
         offset="0"
         id="stop4867" />
    </linearGradient>
    <inkscape:path-effect
       effect="spiro"
       id="path-effect4717"
       is_visible="true" />
    <inkscape:path-effect
       effect="spiro"
       id="path-effect4713"
       is_visible="true" />
    <inkscape:path-effect
       effect="spiro"
       id="path-effect4709"
       is_visible="true" />
    <inkscape:path-effect
       effect="spiro"
       id="path-effect4705"
       is_visible="true" />
    <inkscape:path-effect
       effect="spiro"
       id="path-effect4701"
       is_visible="true" />
    <inkscape:path-effect
       effect="spiro"
       id="path-effect4673"
       is_visible="true" />
    <inkscape:path-effect
       effect="spiro"
       id="path-effect4665"
       is_visible="true" />
    <inkscape:path-effect
       effect="spiro"
       id="path-effect4661"
       is_visible="true" />
    <inkscape:path-effect
       effect="spiro"
       id="path-effect4657"
       is_visible="true" />
    <inkscape:path-effect
       effect="spiro"
       id="path-effect4653"
       is_visible="true" />
    <inkscape:path-effect
       effect="spiro"
       id="path-effect4649"
       is_visible="true" />
    <inkscape:path-effect
       effect="spiro"
       id="path-effect4645"
       is_visible="true" />
    <inkscape:path-effect
       effect="spiro"
       id="path-effect4637"
       is_visible="true" />
  </defs>
  <sodipodi:namedview
     id="base"
     pagecolor="#ffffff"
     bordercolor="#666666"
     borderopacity="1.0"
     inkscape:pageopacity="0.0"
     inkscape:pageshadow="2"
     inkscape:zoom="0.54184399"
     inkscape:cx="514.37973"
     inkscape:cy="893.07472"
     inkscape:document-units="mm"
     inkscape:current-layer="layer1"
     showgrid="false"
     inkscape:window-width="1280"
     inkscape:window-height="961"
     inkscape:window-x="-8"
     inkscape:window-y="-8"
     inkscape:window-maximized="1"
     inkscape:lockguides="true"
     showguides="true"
     inkscape:guide-bbox="true"
     units="px"
     width="250px"
     fit-margin-top="0"
     fit-margin-left="0"
     fit-margin-right="0"
     fit-margin-bottom="0">
    <sodipodi:guide
       position="82.814581,225.42501"
       orientation="0,1"
       id="guide4978"
       inkscape:locked="true" />
    <sodipodi:guide
       position="74.612498,225.42502"
       orientation="1,0"
       id="guide4980"
       inkscape:locked="true" />
  </sodipodi:namedview>
  <metadata
     id="metadata3762">
    <rdf:RDF>
      <cc:Work
         rdf:about="">
        <dc:format>image/svg+xml</dc:format>
        <dc:type
           rdf:resource="http://purl.org/dc/dcmitype/StillImage" />
        <dc:title></dc:title>
      </cc:Work>
    </rdf:RDF>
  </metadata>
  <g
     inkscape:label="Layer 1"
     inkscape:groupmode="layer"
     id="layer1"
     transform="translate(50.452999,29.183413)">
    <path
       id="path3828"
       style="fill:none;fill-opacity:1;stroke:#000000;stroke-width:1.51292753;stroke-opacity:1"
       sodipodi:type="arc"
       sodipodi:cx="82.179634"
       sodipodi:cy="114.89938"
       sodipodi:rx="128.98784"
       sodipodi:ry="138.36905"
       sodipodi:start="0"
       sodipodi:end="6.2783553"
       sodipodi:open="true"
       d="M 211.16747,114.89938 A 128.98784,138.36905 0 0 1 82.335387,253.26833 128.98784,138.36905 0 0 1 -46.807829,115.23354 128.98784,138.36905 0 0 1 81.712376,-23.468758 128.98784,138.36905 0 0 1 211.16597,114.23106" />
    <path
       style="fill:none;stroke:#000000;stroke-width:1.51292753px;stroke-linecap:butt;stroke-linejoin:miter;stroke-opacity:1"
       d="m -35.961479,169.42698 6.156243,-2.34601 47.238402,-53.22742 72.368453,-65.206732 2.345681,-5.276861 11.9053,-26.415665 9.35761,-15.9357927"
       id="path4635"
       inkscape:connector-curvature="0"
       inkscape:path-effect="#path-effect4637"
       inkscape:original-d="m -35.961479,169.42698 c 1.796841,0.3679 32.5121485,-27.47243 6.156243,-2.34601 -525.591184,169.8737 74.486207,5.67638 47.238402,-53.22742 2.587133,-0.76599 70.810996,-65.303875 72.368453,-65.206732 -0.58622,-2.553954 2.048794,-4.508659 2.345681,-5.276861 4.856467,-27.609101 11.46404,-27.518329 11.9053,-26.415665 11.57847,-21.5408575 -4.311559,13.452022 9.35761,-15.9357927"
       sodipodi:nodetypes="ccccccc" />
    <path
       style="fill:none;stroke:#000000;stroke-width:1.51292753px;stroke-linecap:butt;stroke-linejoin:miter;stroke-opacity:1"
       d="m 113.84065,1.1533893 5.77911,26.5205647 5.3602,10.41684 5.55549,-5.576737 6.68976,-7.32205 c 0.05,0.190666 0.0603,0.389237 0.0603,0.58634 v 2.931466 19.934528"
       id="path4643"
       inkscape:connector-curvature="0"
       inkscape:path-effect="#path-effect4645"
       inkscape:original-d="m 113.84065,1.1533893 c 1.99228,8.7046147 -11.46538,25.9674447 5.77911,26.5205647 4.01097,8.97295 3.06437,7.447274 5.3602,10.41684 3.98536,-2.890374 1.61067,-3.969419 5.55549,-5.576737 0.84796,-1.966212 5.74577,-7.511304 6.68976,-7.32205 0.13191,0.138566 0.0603,0.391177 0.0603,0.58634 v 2.931466 c 1.24598,3.842082 0,13.289804 0,19.934528"
       sodipodi:nodetypes="cccccscc" />
    <path
       style="fill:none;stroke:#000000;stroke-width:1.51292753px;stroke-linecap:butt;stroke-linejoin:miter;stroke-opacity:1"
       d="m 137.29406,48.646818 2.92976,1.172594 23.45302,23.452358 0.5859,0.586206 c 0.19561,0.195417 0.39119,0.390869 0.58673,0.586355 0.19548,0.195421 0.39092,0.390876 0.58633,0.586366"
       id="path4647"
       inkscape:connector-curvature="0"
       inkscape:path-effect="#path-effect4649"
       inkscape:original-d="m 137.29406,48.646818 c 0.97609,0.391502 9.21472,10.718742 2.92976,1.172594 5.69808,7.117519 12.3331,14.787518 23.45302,23.452358 -0.33614,0.788122 0.3988,0.397502 0.5859,0.586206 0.24855,0.123158 0.34081,0.462966 0.58673,0.586355 0.78157,0.391397 0.58633,-0.586355 0.58633,0.586366"
       sodipodi:nodetypes="cccccc" />
    <path
       style="fill:none;stroke:#000000;stroke-width:1.51292753px;stroke-linecap:butt;stroke-linejoin:miter;stroke-opacity:1"
       d="m 165.4358,75.030697 c 0.71807,1.02727 1.13087,2.265151 1.17311,3.517796 0.0132,0.39067 0,0.781721 0,1.172613 v 2.345341 l 0.52995,8.180816"
       id="path4651"
       inkscape:connector-curvature="0"
       inkscape:path-effect="#path-effect4653"
       inkscape:original-d="m 165.4358,75.030697 c 0.39362,1.17264 0.83273,2.329403 1.17311,3.517796 0.10432,0.375689 0,0.781784 0,1.172613 v 2.345341 l 0.52995,8.180816"
       sodipodi:nodetypes="ccscc" />
    <path
       style="fill:none;stroke:#000000;stroke-width:1.51292753px;stroke-linecap:butt;stroke-linejoin:miter;stroke-opacity:1"
       d="m 166.84687,89.73419 6.03273,7.524239 14.55349,12.972721 9.66289,1.15086 0.58662,0.58616"
       id="path4655"
       inkscape:connector-curvature="0"
       inkscape:path-effect="#path-effect4657"
       inkscape:original-d="m 166.84687,89.73419 c 0.81785,1.171315 4.85264,6.93416 6.03273,7.524239 3.02201,2.387618 10.87923,12.555741 14.55349,12.972721 17.61415,7.13264 9.96885,3.34271 9.66289,1.15086 0.78215,0.78137 -0.9765,0.58616 0.58662,0.58616"
       sodipodi:nodetypes="ccccc" />
    <path
       style="fill:none;stroke:#000000;stroke-width:1.51292753px;stroke-linecap:butt;stroke-linejoin:miter;stroke-opacity:1"
       d="m 197.6826,111.96817 c 0.70175,3.07752 1.09552,6.22519 1.1735,9.38075 0.0193,0.78168 0.0193,1.56385 0,2.34553 l -0.58632,1.17271 v 0 l -9.37321,9.18754 c -1.58244,1.55109 -3.19107,3.08867 -4.99793,4.37135 -1.80685,1.28268 -3.79932,2.3054 -5.90222,3.00382 -4.20581,1.39684 -8.72052,1.39669 -13.14695,1.61275 -4.69047,0.22894 -9.37602,0.58594 -14.07207,0.58594 h -7.62098 -1.75946"
       id="path4659"
       inkscape:connector-curvature="0"
       inkscape:path-effect="#path-effect4661"
       inkscape:original-d="m 197.6826,111.96817 c 1.42887,3.10935 1.1735,5.22847 1.1735,9.38075 0,0.21655 0.004,2.32175 0,2.34553 -0.88552,0.0577 -0.62754,0.51606 -0.58632,1.17271 -6.28203,1.23741 16.22337,-0.97281 0,0 l -9.37321,9.18754 c -5.37129,5.19943 -12.58321,8.86551 -24.0471,8.98792 -6.35404,-0.16741 -7.99328,0.58594 -14.07207,0.58594 h -7.62098 -1.75946"
       sodipodi:nodetypes="cccccccccc" />
    <path
       style="fill:none;stroke:#000000;stroke-width:1.51292753px;stroke-linecap:butt;stroke-linejoin:miter;stroke-opacity:1"
       d="m 141.39696,143.62856 c -3.45123,-4.67661 -6.97689,-9.29828 -10.57522,-13.86267 -7.00627,-8.88729 -14.30149,-17.572 -22.35798,-25.51963 -3.31935,-3.2745 -6.76506,-6.420914 -10.326883,-9.429881"
       id="path4663"
       inkscape:connector-curvature="0"
       inkscape:path-effect="#path-effect4665"
       inkscape:original-d="m 141.39696,143.62856 c -9.57409,-16.73588 -8.07173,-12.61076 -10.57522,-13.86267 -12.29198,-6.2025 -9.86737,-9.07892 -22.35798,-25.51963 -4.97435,-6.464733 -5.57893,-5.364733 -10.326883,-9.429881"
       sodipodi:nodetypes="cccc" />
    <path
       style="fill:none;stroke:#000000;stroke-width:1.51292753px;stroke-linecap:butt;stroke-linejoin:miter;stroke-opacity:1"
       d="m 98.709288,95.101405 -7.734986,16.866765 v 0 l -0.916253,0.82462"
       id="path4671"
       inkscape:connector-curvature="0"
       inkscape:path-effect="#path-effect4673"
       inkscape:original-d="m 98.709288,95.101405 c -1.491864,-1.08639 -5.311122,14.434465 -7.734986,16.866765 -0.231654,1.16109 0.19559,0.004 0,0 -0.277251,0 -0.720478,0.62958 -0.916253,0.82462"
       sodipodi:nodetypes="cccc" />
    <path
       style="fill:none;stroke:#000000;stroke-width:1.51292753px;stroke-linecap:butt;stroke-linejoin:miter;stroke-opacity:1"
       d="m 90.388361,112.5546 c -2.530383,1.2635 -5.382908,1.87515 -8.208869,1.76016 -2.777907,-0.11303 -5.524516,-0.92749 -7.914991,-2.34706 l -8.208097,-4.39992 -15.424113,-7.27099"
       id="path4699"
       inkscape:connector-curvature="0"
       inkscape:path-effect="#path-effect4701"
       inkscape:original-d="m 90.388361,112.5546 c -2.038044,-0.43095 -3.195408,1.76016 -8.208869,1.76016 -3.774865,-0.0953 -4.643388,-1.68776 -7.914991,-2.34706 0.487252,1.36442 -4.792575,-3.27301 -8.208097,-4.39992 -5.666294,-2.60384 -10.067117,-4.44582 -15.424113,-7.27099"
       sodipodi:nodetypes="ccccc" />
    <path
       style="fill:none;stroke:#000000;stroke-width:1.51292753px;stroke-linecap:butt;stroke-linejoin:miter;stroke-opacity:1"
       d="m 51.105185,100.82175 0.88007,4.69819 0.586263,2.63869 5.570719,14.36577 0.292385,0.29271 v 0.29426 l 0.293222,0.29389 c -0.03067,0.0101 -0.058,0.0301 -0.07692,0.0563 -0.01892,0.0262 -0.02935,0.0584 -0.02935,0.0907 0,0.0323 0.01043,0.0645 0.02935,0.0907 0.01892,0.0262 0.04625,0.0462 0.07692,0.0563 0.04695,0.0155 0.09802,0.008 0.146844,-7e-5 0.04882,-0.008 0.09991,-0.0155 0.146834,7e-5 0.03055,0.0101 0.05776,0.0301 0.0766,0.0562 0.01884,0.0261 0.02921,0.0582 0.02921,0.0904 0,0.0322 -0.01038,0.0643 -0.02921,0.0904 -0.01884,0.0261 -0.04604,0.0461 -0.0766,0.0562 l 0.294125,0.58602 3.694599,4.54453 -1.070615,2.57809"
       id="path4703"
       inkscape:connector-curvature="0"
       inkscape:path-effect="#path-effect4705"
       inkscape:original-d="m 51.105185,100.82175 c -2.108457,1.00295 0.004,3.40346 0.88007,4.69819 0.307655,0.86321 0.501558,1.9823 0.586263,2.63869 1.591815,5.73589 4.305357,9.36077 5.570719,14.36577 0.0607,0.12092 0.230246,0.16969 0.292385,0.29271 0.008,0.0856 -0.008,0.20487 0,0.29426 0.06101,0.12099 0.230419,0.16762 0.293222,0.29389 0.008,0.0855 -0.06864,0.2264 0,0.29406 0.0694,0.0638 0.223971,-0.0659 0.293678,0 0.0683,0.0638 -0.008,0.20464 0,0.29333 0.667617,0.66711 0.07836,-0.0564 0.294125,0.58602 10.86001,11.1536 -3.617237,2.87962 3.694599,4.54453 0.292949,0 -0.991654,3.34334 -1.070615,2.57809"
       sodipodi:nodetypes="cccccccsscccc" />
    <path
       style="fill:none;stroke:#000000;stroke-width:1.51292753px;stroke-linecap:butt;stroke-linejoin:miter;stroke-opacity:1"
       d="m 63.008524,129.12194 c -3.990192,7.53071 -6.272289,15.96017 -6.626169,24.47533 -0.207102,4.98334 0.239411,9.99346 1.324501,14.86164 l -1.031593,8.59109 5.277965,4.6922 4.689511,2.34632 3.224765,0.8799 h 2.345402 c 1.486519,0 2.991438,-0.10256 4.396798,-0.58702 l 3.517942,-0.5866 0.879881,-0.29348 1.25166,-0.20838 11.139565,0.2936"
       id="path4707"
       inkscape:connector-curvature="0"
       inkscape:path-effect="#path-effect4709"
       inkscape:original-d="m 63.008524,129.12194 c -6.63145,2.50187 -5.146555,12.53593 -6.626169,24.47533 -0.720065,5.20438 1.324501,9.38845 1.324501,14.86164 -0.876335,3.33941 -1.053461,8.53251 -1.031593,8.59109 7.589396,6.12992 0,0 5.277965,4.6922 1.217953,0.29291 3.832579,1.85892 4.689511,2.34632 1.627048,0.38774 1.993289,0.50038 3.224765,0.8799 h 2.345402 c 1.564675,-0.0611 2.828845,-0.57384 4.396798,-0.58702 0.898922,-0.32868 3.076759,-0.51244 3.517942,-0.5866 0.665006,0.19544 0.80803,-0.26908 0.879881,-0.29348 12.391225,0.0814 1.154325,-0.20838 1.25166,-0.20838 4.4728,1.55067 8.694178,-0.28033 11.139565,0.2936"
       sodipodi:nodetypes="ccccccccccccc" />
    <path
       style="fill:none;stroke:#000000;stroke-width:1.51292753px;stroke-linecap:butt;stroke-linejoin:miter;stroke-opacity:1"
       d="m 92.733271,183.7948 3.561806,30.14285 5.406233,13.0398 6.4275,9.79678 3.0978,4.67786"
       id="path4711"
       inkscape:connector-curvature="0"
       inkscape:path-effect="#path-effect4713"
       inkscape:original-d="m 92.733271,183.7948 c 9.831229,41.75921 -12.432867,-4.59986 3.561806,30.14285 -0.005,0.26626 5.406233,12.7746 5.406233,13.0398 1.09031,3.75088 2.73773,11.08349 6.4275,9.79678 1.08838,1.58581 3.92797,6.41277 3.0978,4.67786"
       sodipodi:nodetypes="ccccc" />
    <path
       style="fill:none;stroke:#000000;stroke-width:1.51292753px;stroke-linecap:butt;stroke-linejoin:miter;stroke-opacity:1"
       d="m 110.98854,241.34298 c 1.90558,0.99068 3.83406,1.93732 5.78337,2.8389 1.73799,0.80384 3.49254,1.57187 5.26216,2.30343"
       id="path4715"
       inkscape:connector-curvature="0"
       inkscape:path-effect="#path-effect4717"
       inkscape:original-d="m 110.98854,241.34298 c 3.72011,1.97568 3.70354,1.73594 5.78337,2.8389 4.33002,2.01259 3.56754,1.72315 5.26216,2.30343"
       sodipodi:nodetypes="ccc" />
    <path
       style="fill:#000000;fill-opacity:1;stroke:#000000;stroke-width:0.53489965;stroke-opacity:1"
       d="M 73.624557,251.92754 C 43.971065,249.84745 15.561159,236.378 -6.0135041,214.17276 c -6.9189529,-7.12207 -11.1712549,-12.41648 -16.6944979,-20.7885 -4.725035,-7.1629 -12.568543,-22.56385 -11.831748,-23.23205 0.260314,-0.23964 1.591077,-0.84579 2.956831,-1.35387 2.239393,-0.8325 4.786192,-3.52299 25.9424027,-27.39864 L 17.819168,114.92398 54.212443,82.117626 90.606862,49.311291 97.791596,33.35677 C 105.493,16.253301 112.72126,2.9979727 113.4273,4.6832772 c 0.21927,0.5229735 1.47834,5.9385688 2.7974,12.0344448 2.184,10.093874 2.667,11.619945 5.41269,17.093101 l 3.01324,6.009628 5.82416,-5.948463 5.82444,-5.948669 v 10.347004 c 0,8.693141 0.13038,10.48133 0.84088,11.187552 0.46158,0.462509 1.12567,0.840666 1.47509,0.840666 0.35164,0 6.51753,5.886391 13.70739,13.080789 l 13.07198,13.081087 0.38886,6.999689 c 0.21178,3.849848 0.60773,7.290614 0.88347,7.646259 3.79615,4.893516 6.55675,7.781542 12.80606,13.397505 l 7.41505,6.66308 4.74273,0.58039 c 2.60827,0.3207 4.8259,0.66297 4.92647,0.76467 0.43663,0.43694 1.26199,6.10143 1.26199,8.67654 v 2.81195 l -6.88245,6.63067 c -7.5622,7.28554 -11.18244,9.61475 -16.38584,10.54382 -3.40927,0.60834 -22.25094,1.67932 -28.75054,1.63385 l -3.87849,-0.009 -5.0816,-6.78874 c -11.37439,-15.19527 -24.4875,-29.98355 -34.3022,-38.685238 -3.180768,-2.819531 -3.845163,-3.201968 -4.455056,-2.562771 -0.396001,0.413275 -2.347322,4.317941 -4.34092,8.676389 -4.266566,9.32723 -4.649535,9.66618 -10.926363,9.68863 -3.896778,0.002 -4.193153,-0.0782 -10.349643,-3.32179 -10.887233,-5.7292 -21.300936,-10.401764 -21.884394,-9.818982 -1.628193,1.627652 4.988118,21.103602 8.92872,26.286722 l 2.239393,2.94467 -1.565478,3.47394 c -3.913854,8.68422 -5.529277,21.17284 -4.146121,32.04166 0.48508,3.82137 0.503525,6.08776 0.07213,8.87601 l -0.579645,3.74429 2.810104,2.58468 c 3.162504,2.90882 8.074366,5.50735 11.334058,5.99611 1.198079,0.17391 4.343865,-0.014 6.990596,-0.51081 4.9318,-0.86306 15.246098,-1.16332 15.237199,-0.44199 -10e-4,0.21912 0.735336,6.77988 1.64138,14.57572 l 1.647044,14.17477 2.929968,7.13944 c 2.175108,5.29886 4.176648,9.00136 7.764388,14.36242 l 4.83529,7.22314 4.26284,2.00436 4.26338,2.00432 -4.9777,1.38344 c -13.00783,3.61673 -27.169955,5.04573 -40.639926,4.10063 z"
       id="path4835"
       inkscape:connector-curvature="0" />
    <path
       style="fill:#000000;fill-opacity:1;stroke:#000000;stroke-width:0.26745012;stroke-opacity:1"
       d="M 74.286077,253.63792 C 30.959977,250.88039 -8.6342351,224.4657 -30.315432,183.85371 -49.12311,148.62455 -52.599236,106.2094 -39.804509,68.069368 -32.482629,46.243621 -20.70587,27.368309 -4.7487706,11.883761 16.668513,-8.8993205 43.107222,-21.099375 72.370338,-23.702494 c 4.909747,-0.436981 15.653814,-0.361249 20.995578,0.14769 54.328114,5.17502 99.673244,45.849759 113.895384,102.167599 2.69057,10.652123 4.44588,23.500255 4.4501,32.561565 4.5e-4,2.66226 -0.007,2.87524 -0.51467,2.87524 -0.61915,0 -0.72828,-0.79583 -0.94206,-6.87688 C 209.84933,95.556815 207.31742,81.747409 203.38422,69.671493 195.86778,46.59208 182.9395,26.201986 165.84504,10.467765 127.53013,-24.798479 73.614479,-32.771349 27.985014,-9.918743 c -36.7195993,18.3904841 -63.09942,54.058456 -71.40731,96.549422 -1.73873,8.892858 -2.401362,15.363121 -2.602627,25.413221 -0.261539,13.05435 0.805341,23.50089 3.700663,36.23887 1.597426,7.02846 5.735842,19.93531 6.481818,20.21634 0.163088,0.0544 1.501034,-0.34821 2.971908,-0.90248 l 2.674562,-1.01425 L -6.3930166,139.7942 17.410171,113.00533 53.248631,80.751775 89.086657,48.498208 96.32403,32.531159 c 6.7857,-14.97103 7.50601,-16.425735 11.55484,-23.3218644 2.37591,-4.0451582 4.47363,-7.5539332 4.66374,-7.7972555 0.24026,-0.3024601 0.60232,-0.4012809 1.15653,-0.3128234 l 0.80898,0.1294675 2.78961,12.8828108 2.78892,12.882939 2.5119,5.050374 2.51144,5.05047 2.38803,-2.375887 c 1.31379,-1.306793 4.10019,-4.26368 6.19273,-6.570858 3.32886,-3.670602 3.82612,-4.12179 3.97849,-3.610568 0.0907,0.321177 0.18262,5.775559 0.19698,12.120438 l 0.005,11.53624 1.41273,0.573189 c 1.23584,0.501603 2.98328,2.14424 13.96935,13.131832 11.94739,11.94956 12.53345,12.581304 12.08893,13.025501 -0.4422,0.443847 -1.07934,-0.142743 -13.09982,-12.128913 -10.00383,-9.975125 -12.86896,-12.68655 -13.76933,-13.030691 -1.41164,-0.540034 -1.47686,-0.356239 -0.11355,0.336909 1.14916,0.586431 7.18564,6.326609 18.80106,17.879393 5.87075,5.838761 7.95999,7.764338 8.08147,7.447319 0.28017,-0.721966 0.86044,-0.477793 1.37201,0.575303 0.39882,0.81722 0.52859,2.043783 0.70899,6.619379 0.11892,3.089106 0.27541,6.000678 0.34519,6.470113 0.0786,0.572042 1.03539,1.988727 2.88484,4.291762 2.25101,2.80321 3.94541,4.491882 9.17898,9.146592 3.53047,3.13975 6.75243,6.01691 7.15979,6.39423 0.67323,0.62353 1.17592,0.73825 5.54959,1.26659 4.85274,0.58681 5.9039,0.90837 5.30906,1.62439 -0.24772,0.29673 -0.22393,0.34 0.10461,0.21213 0.32734,-0.12308 0.47831,0.14875 0.70901,1.26403 0.88297,4.30053 1.10299,10.13651 0.42538,11.43659 -0.61575,1.19055 -13.16751,13.1177 -15.29021,14.52894 -2.49391,1.65736 -5.28965,2.82474 -8.25344,3.4453 -3.16544,0.66302 -13.42409,1.27525 -24.80669,1.48102 -8.2391,0.14484 -9.02618,0.12172 -9.02618,-0.27357 0,-0.27158 -0.18911,-0.41094 -0.49912,-0.3791 -0.36798,0.0316 -1.55363,-1.32707 -4.45403,-5.15132 -12.49426,-16.47536 -23.27141,-28.86356 -32.48071,-37.33433 -2.33912,-2.1513 -4.503589,-4.086828 -4.809833,-4.301515 -0.626472,-0.439553 -0.267578,-1.117454 -5.509131,10.379245 -2.63164,5.77047 -2.733415,5.89778 -5.611611,6.96281 -1.354707,0.50051 -2.163818,0.59384 -5.340709,0.60797 -4.63018,0.004 -5.215554,-0.16524 -12.146347,-3.88584 -5.441288,-2.91903 -18.475332,-9.15969 -18.688048,-8.94698 -0.07274,0.0739 0.130819,1.4659 0.45687,3.0941 0.421469,2.13475 1.331334,4.87869 3.246167,9.83488 1.46069,3.78075 2.801582,7.1147 2.979668,7.40896 0.17767,0.29309 0.512001,0.89847 0.744426,1.34312 0.230925,0.44083 1.230001,1.81033 2.2195,3.03534 0.989682,1.22516 1.797795,2.42655 1.79747,2.66874 -1.83e-4,0.24384 -0.467733,1.34467 -1.033309,2.44782 -2.233344,4.33711 -4.110362,10.51459 -4.997594,16.44759 -0.804374,5.37996 -0.521941,14.01315 0.634141,19.37701 0.118799,0.54171 -10e-4,2.63549 -0.301302,5.08175 l -0.498114,4.15824 2.229116,2.06773 c 3.639846,3.37582 8.429677,5.55467 12.210758,5.55467 1.459703,0 4.915777,-0.55183 8.472708,-1.35424 1.456629,-0.32879 12.516067,-0.26298 12.854806,0.0742 0.102746,0.10567 1.007471,7.06504 2.00128,15.46074 l 1.806868,15.26636 2.620039,6.3359 c 2.618201,6.33109 2.624041,6.34182 7.380631,13.57862 l 4.76028,7.24164 3.67788,1.77212 c 4.69661,2.2623 6.13196,2.86644 6.809,2.86644 1.67576,0 14.456,-5.78305 20.70605,-9.37 18.32584,-10.51651 34.94472,-26.77024 46.23144,-45.2143 12.11358,-19.79565 19.14285,-41.5538 20.98341,-64.95216 0.15176,-1.97862 0.28461,-4.62636 0.28551,-5.88388 0.001,-1.25764 0.0765,-2.91857 0.16718,-3.6906 0.13596,-1.17472 0.25713,-1.40409 0.70867,-1.40409 0.52826,0 0.53539,0.10432 0.37069,5.41565 -1.19375,37.67445 -17.6348,74.38795 -44.44289,99.24012 -25.87802,23.99036 -58.89362,36.0258 -92.895286,33.86161 z m 16.432584,-1.32115 c 5.404692,-0.41967 9.748899,-1.01957 14.754719,-2.0158 4.46271,-0.88748 12.31576,-2.90638 12.61732,-3.24296 0.0771,-0.0854 -0.15044,-0.0762 -0.52091,0.004 -8.1623,2.27939 -15.77345,3.8073 -22.866781,4.59063 -5.172929,0.57137 -15.962076,0.7863 -20.659256,0.4083 -2.095301,-0.16354 -4.562614,-0.35942 -5.482923,-0.41734 l -1.672473,-0.11772 1.65838,0.26284 c 4.744442,0.74498 15.953594,1.00593 22.172153,0.51582 z m -24.298953,-0.98218 c -0.256707,-0.0598 -0.678647,-0.0598 -0.935666,0 -0.259654,0.0599 -0.008,0.11954 0.468094,0.11954 0.514578,0 0.725323,-0.0486 0.469659,-0.11954 z m -1.871847,-0.26851 c -0.25765,-0.0602 -0.678892,-0.0602 -0.936198,0 -0.258378,0.0588 -0.008,0.11654 0.469148,0.11654 0.514782,0 0.726235,-0.0501 0.470204,-0.11654 z m -5.683316,-1.00587 C 47.891424,247.80038 39.18597,244.80283 28.909827,239.74415 8.5969019,229.7445 -8.8633773,214.28161 -21.968552,194.68436 c -4.972259,-7.43523 -12.640963,-22.10725 -12.640963,-24.18467 0,-0.44702 0.311054,-0.71386 1.343602,-1.14216 0.73897,-0.31014 1.30343,-0.59865 1.254383,-0.64748 -0.118664,-0.1149 -2.937916,0.9491 -3.213261,1.21581 -0.488693,0.47149 5.569306,13.04069 9.162642,19.00868 6.266807,10.40763 12.555395,18.46272 20.9916882,26.88582 17.6990808,17.67067 39.1356408,29.32225 63.2321608,34.36825 2.004444,0.41464 3.945198,0.76076 4.31355,0.75837 0.36631,-0.001 -1.257504,-0.40105 -3.610705,-0.88677 z m 59.494835,-4.49145 c -0.94957,-0.41677 -3.009,-1.3776 -4.57833,-2.12133 l -2.85177,-1.3521 -3.81337,-5.7863 c -3.4583,-5.24791 -4.72005,-7.05775 -4.12474,-5.9194 0.11209,0.22219 1.90624,2.97742 3.98104,6.12749 l 3.77163,5.72617 4.41525,2.16492 c 2.42979,1.19008 4.5309,2.11166 4.67123,2.04714 0.1326,-0.0584 -0.52206,-0.46337 -1.47094,-0.88614 z M 99.148211,222.45205 c -0.314962,-0.54117 -0.394412,-0.3701 -0.129494,0.30523 0.08759,0.24153 0.221933,0.38563 0.29171,0.30843 0.06232,-0.0613 -0.001,-0.34805 -0.153663,-0.61383 z m -0.534244,-1.33644 c -0.316125,-0.54178 -0.394023,-0.37158 -0.129698,0.30486 0.08597,0.24077 0.224317,0.38612 0.292964,0.3109 0.062,-0.0619 -10e-4,-0.34637 -0.15413,-0.613 z m -0.802401,-1.87251 c -0.316806,-0.54117 -0.394028,-0.37126 -0.129966,0.30401 0.08567,0.24134 0.225135,0.38558 0.292904,0.30959 0.06265,-0.063 -10e-4,-0.34702 -0.153313,-0.61326 z m -0.534906,-1.33711 c -0.316537,-0.54162 -0.394054,-0.372 -0.129478,0.3054 0.08759,0.24048 0.226135,0.38551 0.292362,0.3106 0.06323,-0.0628 -0.001,-0.34771 -0.155624,-0.61321 z m -1.336898,-3.20932 c -0.316829,-0.54139 -0.393859,-0.37096 -0.12965,0.30534 0.0861,0.24085 0.220445,0.38593 0.291228,0.31064 0.06101,-0.0618 -10e-4,-0.34655 -0.15298,-0.6128 z M 94.241048,201.8896 c -0.773325,-6.60032 -1.444505,-11.79989 -1.491542,-11.55436 -0.008,0.24714 0.464869,5.23477 1.138935,11.08956 1.343813,11.66426 1.484017,12.73852 1.647064,12.57619 0.05314,-0.0531 -0.521807,-5.51185 -1.294457,-12.11139 z m -1.621762,-13.55357 c -0.05876,-0.33454 -0.117038,-0.12078 -0.118212,0.46443 -0.001,0.58823 0.009,0.86115 0.112299,0.6052 0.0579,-0.25617 0.06232,-0.73708 0.001,-1.06988 z m -0.268328,-2.40686 c -0.05702,-0.33513 -0.114678,-0.11975 -0.118949,0.46435 -0.001,0.58912 0.009,0.86135 0.116107,0.60599 0.06091,-0.25706 0.06567,-0.73779 10e-4,-1.07029 z M 69.29529,185.47579 c -0.295084,-0.11763 -0.956539,-0.28716 -1.471378,-0.38106 -0.922668,-0.15085 -0.920865,-0.14756 0.131143,0.21503 1.147806,0.39835 2.251798,0.53068 1.337312,0.15617 z m 12.837857,-0.81836 c 4.135,-0.33742 8.469644,-0.34198 9.342588,-0.002 0.522764,0.1961 0.686619,0.17033 0.686619,-0.0899 0,-0.27621 -1.076983,-0.39137 -4.881959,-0.4959 -4.449735,-0.12807 -5.140349,-0.0839 -7.822155,0.48985 -1.618134,0.35146 -2.4008,0.57568 -1.738277,0.50239 0.661327,-0.0692 2.647714,-0.25164 4.413184,-0.39588 z m -16.18146,-0.12862 c 0,-0.15813 -2.045409,-1.21317 -2.329678,-1.1968 -0.117548,0.001 0.328152,0.30335 0.992199,0.65623 1.348738,0.72188 1.337479,0.71747 1.337479,0.53997 z m -5.081342,-2.89443 c 0,-0.0139 -1.090612,-1.03067 -2.423027,-2.19164 l -2.422764,-2.11048 0.13245,-1.7533 0.132482,-1.75343 -0.277347,1.68827 c -0.326049,1.97438 -0.397263,1.85636 2.689054,4.50221 1.849899,1.58763 2.165796,1.82366 2.165796,1.61837 z m -4.362703,-9.48099 c -0.06586,-0.26008 -0.121975,-0.0172 -0.121975,0.46888 0,0.51394 0.05294,0.72502 0.121975,0.46709 0.06701,-0.25839 0.06701,-0.67856 0,-0.93642 z m 0.198031,-5.28035 -0.376935,-1.60601 0.129965,1.71048 c 0.07103,0.94093 0.145603,2.32469 0.163054,3.07543 l 0.006,1.3651 0.211564,-1.46935 c 0.146438,-1.00996 0.09329,-1.97187 -0.162237,-3.07565 z m -0.466892,-3.00536 c -0.06823,-0.26158 -0.126834,-0.1096 -0.132231,0.33015 -10e-4,0.44157 0.009,0.65447 0.123674,0.47314 0.07398,-0.1785 0.07676,-0.54175 0.002,-0.80269 z m -0.268349,-2.26214 c -0.08281,-0.2166 -0.149333,-0.14504 -0.160088,0.15837 -0.002,0.28196 0.009,0.43807 0.140873,0.35119 0.08693,-0.085 0.09816,-0.32038 0.004,-0.51188 z M -7.2082962,142.93434 C 0.17444394,134.62337 8.853959,124.85145 12.079209,121.2192 l 5.863979,-6.60511 36.239396,-32.646513 36.239628,-32.64649 1.965768,-4.343503 C 93.469225,42.588731 95.79804,37.444827 97.564123,33.546707 105.06338,16.990464 111.86084,4.3947322 113.2993,4.3947322 c 0.22259,0 0.60243,1.327706 1.35927,4.7397092 0.33446,1.5035446 0.65405,2.6866826 0.71163,2.6289736 0.0517,-0.05767 -0.35211,-2.2176596 -0.90574,-4.7999201 -0.55477,-2.582244 -1.03689,-4.6679333 -1.06936,-4.6348485 -0.006,0.03022 -2.00775,3.3698977 -4.38871,7.4150697 -4.07295,6.9166239 -4.72561,8.2314029 -10.954833,22.0646359 -3.642639,8.090372 -6.8649,15.264235 -7.161633,15.941978 -0.466244,1.069838 -5.314686,5.536665 -36.759795,33.87335 l -36.22238,32.64019 -12.5443619,14.13412 c -19.0666261,21.48214 -29.4903231,33.31287 -27.6522541,31.38401 0.911235,-0.95596 7.697227,-8.53805 15.0803505,-16.84918 z M 156.28166,142.73779 c -0.69856,-0.0512 -1.8417,-0.0512 -2.54032,0 -0.69905,0.0539 -0.12545,0.0947 1.26969,0.0947 1.39786,0 1.9699,-0.0332 1.27063,-0.0947 z m -14.64313,-0.16871 c 0,-0.0524 -0.21379,-0.26718 -0.46822,-0.46781 -0.41799,-0.33302 -0.42882,-0.32507 -0.0957,0.0969 0.35252,0.44399 0.56807,0.58671 0.56807,0.37097 z m 19.9993,-0.0908 c -0.54668,-0.0534 -1.51045,-0.0545 -2.14024,-0.001 -0.62826,0.0505 -0.17521,0.0999 0.99608,0.0999 1.17714,0.001 1.69161,-0.0312 1.14416,-0.0964 z m 11.42637,-0.62479 c 4.24944,-0.59291 7.55625,-1.87642 10.80449,-4.19406 0.96644,-0.6904 4.46788,-3.95005 7.77969,-7.24404 l 6.02147,-5.98848 -4.94847,4.68737 c -7.87915,7.46506 -10.84139,9.74989 -14.41893,11.12262 -2.42418,0.92986 -4.54109,1.28474 -10.58737,1.77666 l -4.54613,0.37536 4.01161,-0.13035 c 2.20639,-0.0665 4.85447,-0.25236 5.88364,-0.39636 z m -32.22732,-0.3534 c 0,-0.0515 -0.21201,-0.26715 -0.46809,-0.46841 -0.41838,-0.33407 -0.42705,-0.32483 -0.0982,0.0971 0.35207,0.44244 0.56811,0.58733 0.56811,0.37266 z m -0.80264,-1.06969 c 0,-0.0538 -0.21162,-0.26726 -0.468,-0.46681 -0.41814,-0.33343 -0.42956,-0.32494 -0.0934,0.0947 0.35216,0.44312 0.56788,0.58721 0.56788,0.37235 z m -81.922953,-1.28629 c -0.08258,-0.21586 -0.148128,-0.14596 -0.160531,0.15952 -0.002,0.28169 0.009,0.43616 0.141537,0.35244 0.08567,-0.0846 0.09737,-0.32156 0.004,-0.5124 z m 81.121823,0.2187 c 0,-0.0513 -0.21224,-0.26722 -0.46848,-0.46685 -0.41813,-0.33346 -0.4286,-0.32441 -0.0942,0.0989 0.35237,0.44218 0.56777,0.58687 0.56777,0.37087 z m -0.80211,-1.06877 c 0,-0.0521 -0.21222,-0.2665 -0.46688,-0.46843 -0.41773,-0.3328 -0.42843,-0.32379 -0.0943,0.0968 0.35211,0.44216 0.56805,0.5877 0.56805,0.37117 z m -0.80207,-1.06966 c 0,-0.0534 -0.21137,-0.26635 -0.46842,-0.46701 -0.41848,-0.33406 -0.42687,-0.3245 -0.0973,0.098 0.35332,0.44379 0.56865,0.58676 0.56865,0.37228 z m -77.579698,-3.19205 c 0.457778,-1.14884 1.135393,-2.69307 1.509908,-3.43169 l 0.680708,-1.34351 -1.117743,-1.44899 c -0.614909,-0.79687 -1.178821,-1.44859 -1.252707,-1.44859 -0.140441,0 -0.103465,0.0432 1.195355,1.74607 l 0.827829,1.0773 -1.288023,2.93437 c -1.242383,2.83085 -1.827691,4.4164 -1.528271,4.13784 0.07937,-0.0683 0.516154,-1.07333 0.972944,-2.22274 z m 76.777698,2.12135 c 0,-0.0527 -0.21149,-0.26646 -0.46871,-0.46702 -0.41833,-0.333 -0.42671,-0.32336 -0.0969,0.096 0.3526,0.44242 0.56772,0.58693 0.56772,0.37202 z m -0.80223,-1.06923 c 0,-0.0529 -0.21143,-0.26726 -0.46837,-0.46768 -0.41832,-0.33388 -0.42934,-0.32408 -0.0945,0.0976 0.35168,0.4424 0.56792,0.58755 0.56792,0.37214 z m -2.43029,-3.11802 c -0.91413,-1.18214 -1.79489,-2.22834 -1.95599,-2.32512 -0.15787,-0.093 0.12947,0.36224 0.65254,1.01256 0.5195,0.65296 1.34344,1.69959 1.82736,2.32517 0.48444,0.62503 0.93908,1.13578 1.01011,1.13578 0.0634,0 -0.61973,-0.96661 -1.53402,-2.14839 z m -2.11609,-2.75717 c 0,-0.0423 -0.26975,-0.32189 -0.6017,-0.60204 l -0.60152,-0.50928 0.50732,0.60158 c 0.4771,0.56378 0.69419,0.72395 0.69419,0.50974 z m -2.29459,-2.85015 c -0.69356,-0.88255 -1.44865,-1.7555 -1.67755,-1.93924 -0.23189,-0.18327 0.28194,0.53735 1.13847,1.60438 0.85666,1.06649 1.61166,1.93943 1.67766,1.93943 0.06,0 -0.44631,-0.72202 -1.13858,-1.60457 z m -1.98475,-2.49447 c 0,-0.0422 -0.33329,-0.38072 -0.73542,-0.7355 l -0.73561,-0.64879 0.64821,0.7359 c 0.6063,0.68737 0.82282,0.85814 0.82282,0.64839 z m 71.06568,-2.25316 c -0.0538,-0.40378 -0.10563,-0.0694 -0.10563,0.73547 0,0.809 0.009,1.14004 0.10563,0.73518 0.0544,-0.40356 0.0544,-1.06599 0,-1.47065 z m -72.40265,0.64318 c 0,-0.0478 -0.27009,-0.32242 -0.60188,-0.60189 l -0.60171,-0.5093 0.50707,0.60186 c 0.47707,0.56366 0.694,0.72358 0.694,0.50865 z m -1.33754,-1.60483 c 0,-0.0465 -0.26958,-0.32217 -0.60203,-0.60159 l -0.60153,-0.50869 0.50964,0.60182 c 0.47777,0.5637 0.69392,0.72333 0.69392,0.50785 z m 73.14811,-5.14265 c -0.24783,-1.62887 -0.52637,-3.09313 -0.62616,-3.25353 -0.0926,-0.15928 -1.08295,-0.36128 -2.18428,-0.44226 l -2.0039,-0.15039 1.79394,0.34189 c 0.9867,0.18659 1.8738,0.41983 1.97114,0.51733 0.34468,0.34382 0.90902,3.30425 1.11088,5.81785 0.14489,1.82144 0.23211,2.20014 0.29501,1.33711 0.008,-0.66181 -0.10891,-2.536 -0.35899,-4.16493 z m -142.735356,0.46868 c -0.754048,-1.94305 -1.417123,-3.4865 -1.474353,-3.42914 -0.05234,0.0526 0.515748,1.69117 1.27113,3.63145 0.756467,1.94074 1.420059,3.48383 1.474536,3.4295 0.05345,-0.0458 -0.518013,-1.68871 -1.271398,-3.63171 z m 68.249976,3.07148 c 0,-0.042 -0.332,-0.37992 -0.73563,-0.73545 l -0.73509,-0.64839 0.64821,0.73558 c 0.60605,0.68761 0.82251,0.85815 0.82251,0.64826 z m -3.7443,-4.28445 c 0,-0.0469 -0.26933,-0.32284 -0.60171,-0.60172 l -0.60161,-0.50914 0.50871,0.60185 c 0.47843,0.56356 0.69451,0.72318 0.69451,0.50987 z m -33.037868,-1.46943 c 0.368538,-0.0948 -1.196618,-0.17635 -3.472283,-0.17635 h -4.139062 l -5.806673,-2.94175 c -6.470444,-3.27878 -7.378123,-3.68431 -4.22641,-1.88802 5.063389,2.88564 9.073398,4.72978 11.099035,5.10428 1.921061,0.35637 5.028295,0.31167 6.545393,-0.0925 z m 2.794711,-0.93195 c 1.179309,-0.60252 1.194101,-0.6281 4.483577,-7.78906 1.81543,-3.95162 3.259243,-7.225919 3.208525,-7.276435 -0.009,-0.0457 -1.377146,2.646013 -2.948787,5.991895 -3.006272,6.40129 -4.255108,8.38629 -5.788016,9.19968 -0.511162,0.27267 -0.753365,0.49019 -0.534132,0.48549 0.218716,-10e-4 0.929039,-0.28047 1.579307,-0.61252 z m 27.567957,-0.54906 c 0,-0.0538 -0.21217,-0.26732 -0.46738,-0.46727 -0.41812,-0.33428 -0.42795,-0.32445 -0.0971,0.0982 0.35153,0.44416 0.56786,0.58742 0.56786,0.36781 z m 75.62482,-0.35159 c -0.25716,-0.0633 -0.73748,-0.0655 -1.0698,-10e-4 -0.33419,0.0604 -0.12275,0.11698 0.46581,0.11908 0.58849,10e-4 0.86103,-0.048 0.60474,-0.11465 z m -2.1398,-0.2689 c -0.25697,-0.0648 -0.73733,-0.0667 -1.07009,-10e-4 -0.33321,0.0603 -0.11937,0.11617 0.46537,0.11887 0.58842,10e-4 0.86026,-0.0473 0.60472,-0.11327 z m -2.52632,-0.27158 c -0.32303,-0.0587 -2.48795,-1.81007 -4.81439,-3.88437 -6.66673,-5.94306 -8.58094,-7.600986 -7.57267,-6.55898 0.51326,0.53184 3.3434,3.13855 6.28521,5.79242 4.08647,3.68584 5.50623,4.81732 6.01815,4.79464 0.60098,-0.01 0.60875,-0.0363 0.0778,-0.1409 z m -79.1156,-7.51644 c -3.23674,-3.20073 -6.54647,-6.341722 -7.3553,-6.979484 -1.0697,-0.844522 -0.92513,-0.664443 0.53525,0.661079 1.10188,1.001777 4.35199,4.144115 7.22116,6.982755 2.86746,2.83875 5.27451,5.16015 5.3485,5.15834 0.0691,-0.001 -2.51418,-2.62193 -5.74974,-5.82269 z m -42.65872,3.2956 c 0,-0.1608 -1.509101,-0.94659 -1.791331,-0.93157 -0.118625,10e-4 0.210605,0.24098 0.722061,0.52336 1.053532,0.57713 1.06927,0.58313 1.06927,0.40795 z m -4.278663,-2.14414 c -1.250994,-0.64728 -2.394265,-1.17647 -2.540904,-1.17647 -0.14723,0 0.755113,0.52913 2.005576,1.17646 1.250195,0.64695 2.393514,1.17671 2.541354,1.17671 0.144762,0 -0.755959,-0.52969 -2.006026,-1.17671 z M 50.88483,103.0173 c -0.07411,-0.18369 -0.13376,-0.0266 -0.13376,0.33436 0,0.36749 0.05863,0.5185 0.13376,0.33411 0.07412,-0.18403 0.07412,-0.48424 0,-0.66854 z m 7.04388,-0.20059 c -0.514141,-0.28139 -1.056648,-0.51225 -1.203525,-0.51225 -0.147483,0 0.152577,0.23053 0.668574,0.51225 0.514847,0.28133 1.056412,0.51253 1.203641,0.51253 0.147847,0 -0.153861,-0.23084 -0.66869,-0.51253 z m -7.305947,-1.12009 c -0.08361,-0.21335 -0.148355,-0.1495 -0.159596,0.16025 -0.002,0.28126 0.009,0.44032 0.139156,0.35152 0.08885,-0.0874 0.0971,-0.32001 0.004,-0.51295 z M 168.89279,93.255034 c -1.96879,-2.447745 -2.21618,-2.720891 -2.07874,-2.301245 0.12708,0.39369 3.40323,4.373829 3.59821,4.373829 0.0761,0 -0.60342,-0.932749 -1.51947,-2.072584 z m -2.72462,-8.421678 c -0.0575,-0.332776 -0.11712,-0.122038 -0.11941,0.464878 -10e-4,0.588358 0.009,0.860714 0.11461,0.604959 0.0591,-0.255543 0.0617,-0.737012 0.001,-1.069736 z m -0.26325,-6.154594 c -0.0516,-0.625056 -0.0963,-0.112428 -0.0963,1.136667 0,1.250495 0.008,1.761808 0.0963,1.136574 0.0487,-0.624927 0.0487,-1.648077 0,-2.273241 z m -28.5454,-29.88978 c 0,-0.146674 -0.12689,-0.267411 -0.28173,-0.267411 -0.15149,0 -0.21198,0.119972 -0.11682,0.267411 0.086,0.147128 0.22065,0.26754 0.28507,0.26754 0.0587,0 0.11436,-0.120254 0.11436,-0.26754 z M 125.99323,38.35888 c 0.57448,-0.588312 0.95306,-1.069709 0.84338,-1.069709 -0.10777,0 -0.60647,0.441246 -1.10017,0.980467 l -0.89855,0.980577 -1.7639,-3.521338 c -0.97098,-1.936682 -1.82437,-3.52122 -1.8957,-3.52122 -0.065,0 0.67928,1.624737 1.66928,3.610565 0.9896,1.985861 1.86688,3.610603 1.94986,3.610603 0.0793,0 0.622,-0.481421 1.1958,-1.069945 z m 2.54071,-2.808386 c 0.3485,-0.367397 0.56685,-0.668485 0.49406,-0.668485 -0.0688,0 -0.41181,0.30055 -0.76167,0.668485 -0.34792,0.36783 -0.567,0.668773 -0.49271,0.668773 0.0715,0 0.41277,-0.300557 0.76195,-0.668773 z m 7.98325,-8.286389 c -0.0776,-0.08114 -1.45271,1.26674 -3.04388,2.998428 l -2.89404,3.148538 3.04378,-2.998468 c 1.67427,-1.649123 2.97637,-3.065988 2.89414,-3.148498 z m -18.76595,-5.269144 c -0.0817,-0.213517 -0.14374,-0.150263 -0.15719,0.160901 -0.002,0.281341 0.009,0.440134 0.13613,0.351194 0.0852,-0.08843 0.0903,-0.320161 0.004,-0.512787 z m -0.26729,-1.06972 c -0.0786,-0.213492 -0.14427,-0.150248 -0.15897,0.160867 -0.002,0.281432 0.009,0.44022 0.13597,0.351035 0.0858,-0.08824 0.0943,-0.320177 0.004,-0.512495 z m -0.2685,-1.337265 c -0.0797,-0.213332 -0.14576,-0.150236 -0.15701,0.160884 -0.002,0.28137 0.009,0.440171 0.13423,0.351109 0.0844,-0.08843 0.0931,-0.320183 0.004,-0.51274 z m -0.27393,-1.353873 c -0.0679,-0.184232 -0.13065,-0.03023 -0.13065,0.334234 0,0.367705 0.055,0.518465 0.13065,0.334268 0.0702,-0.184192 0.0702,-0.484259 0,-0.668608 z m -0.26424,-1.053179 c -0.08,-0.213515 -0.14314,-0.150437 -0.15747,0.160877 -0.002,0.281361 0.009,0.440147 0.13362,0.35109 0.0848,-0.08829 0.0938,-0.320161 0.004,-0.512749 z m -0.26923,-1.352543 c -0.0671,-0.184221 -0.13041,-0.03027 -0.13041,0.33428 0,0.367784 0.0527,0.518515 0.13041,0.334243 0.0689,-0.184254 0.0689,-0.484259 0,-0.668637 z m -0.26408,-1.053039 c -0.0802,-0.213589 -0.14751,-0.150229 -0.15763,0.160863 -0.002,0.281369 0.009,0.440173 0.13417,0.351034 0.086,-0.08827 0.0931,-0.320158 0.004,-0.51273 z m -0.33155,-1.673438 c -0.0968,-0.536642 -0.23921,-0.922349 -0.30435,-0.856987 -0.0586,0.06582 -0.006,0.558092 0.0571,1.094733 0.0948,0.536592 0.23868,0.92235 0.30184,0.856982 0.0578,-0.06587 0.006,-0.558103 -0.0566,-1.094728 z"
       id="path4837"
       inkscape:connector-curvature="0" />
    <path
       style="fill:#000000;fill-opacity:1;stroke:#000000;stroke-width:0.26745012;stroke-opacity:1"
       d="M 73.306991,253.6311 C 46.985347,251.677 21.940498,241.14752 0.96181211,223.21784 -29.458556,197.218 -47.441771,156.95757 -47.441771,114.85198 c 0,-31.952226 10.315174,-63.054468 29.09392,-87.723606 C -11.420429,18.027881 -2.500831,9.0230534 6.6090289,1.9326991 29.672357,-16.017974 59.271685,-25.438196 87.940631,-23.951562 c 22.502819,1.166979 43.153049,7.960321 62.124009,20.4374153 16.62711,10.9354646 30.62179,25.6790527 41.37634,43.5893137 12.04019,20.051031 19.48475,45.333384 20.18968,68.558713 0.15802,5.38236 0.15519,5.41547 -0.4002,5.41547 -0.70522,0 -0.77846,-0.42798 -0.98743,-5.74996 -0.62581,-15.94783 -3.92565,-31.555265 -9.89636,-46.803592 -20.70393,-52.8820468 -70.01361,-86.489032 -123.383664,-84.093232 -9.352977,0.419814 -17.336888,1.646171 -26.002313,3.993879 -41.8591949,11.3404225 -75.629178,44.427593 -89.805541,87.989043 -4.255632,13.076715 -6.359424,24.707615 -7.014637,38.780172 -0.858725,18.44472 1.607142,36.1524 7.476268,53.68634 1.633719,4.88062 2.317471,6.48856 2.761232,6.49355 0.189028,0.001 1.463642,-0.3921 2.832223,-0.86668 l 2.488513,-0.87098 L -6.7133193,140.02144 16.87455,113.43397 52.97285,80.912325 89.070874,48.390589 96.302158,32.460862 c 6.538812,-14.403864 7.610222,-16.576707 11.181712,-22.6826908 5.62138,-9.61567586 5.13838,-8.9306943 6.15546,-8.7129236 0.46842,0.1015699 0.87416,0.1999282 0.89775,0.2186368 0.004,0.00433 1.30005,5.8125511 2.83646,12.8732216 l 2.79459,12.837555 2.44611,4.881011 c 1.3457,2.684501 2.54938,4.880856 2.67453,4.880856 0.19715,0 8.30735,-8.529657 11.14835,-11.726568 0.90234,-1.015832 1.05759,-1.100092 1.22647,-0.668671 0.10189,0.271695 0.20621,5.742889 0.21605,12.158464 l 0.003,11.664438 1.2702,0.47031 c 1.08682,0.401848 3.09752,2.291848 13.91081,13.073947 7.05382,7.033793 12.58318,12.751534 12.51134,12.938458 -0.064,0.184526 0.0504,0.334726 0.27952,0.334726 0.87091,0 1.24697,1.830245 1.48497,7.221185 0.12266,2.868295 0.3013,5.729776 0.38814,6.358361 0.17465,1.350433 2.30806,4.332393 5.46491,7.654824 1.7944,1.888062 13.55188,12.601068 14.36925,13.092518 0.17513,0.10474 2.43833,0.47891 5.01777,0.82354 4.12051,0.54911 5.80147,0.99704 5.3721,1.42662 -0.0627,0.0661 0.006,0.28704 0.22748,0.47952 0.59556,0.59504 1.0919,4.59148 1.0919,8.78042 v 3.98226 l -5.9594,5.82365 c -6.69743,6.54461 -8.77157,8.32718 -11.3085,9.71652 -4.50771,2.46956 -7.20593,2.9102 -22.30177,3.63865 -7.08845,0.34217 -18.06524,0.35612 -18.06524,0.004 0,-0.13176 -0.23201,-0.28858 -0.50945,-0.33568 -0.30035,-0.036 -2.82881,-3.08732 -6.14345,-7.37891 -11.94235,-15.46423 -18.63592,-23.22044 -27.74906,-32.15618 -6.00996,-5.893565 -8.047719,-7.669452 -8.397936,-7.319129 -0.251245,0.249174 -6.476084,13.485959 -6.978136,14.833529 -0.629033,1.68973 -3.69623,2.91389 -7.81193,3.11819 -4.920826,0.24553 -5.499729,0.0572 -14.986173,-4.758 -8.129861,-4.12909 -16.243087,-8.01337 -16.738428,-8.01337 -0.732495,0 0.916124,5.9057 3.577644,12.81542 2.743501,7.12313 3.446647,8.52677 5.772211,11.52276 0.970715,1.24994 1.845154,2.40687 1.943903,2.57003 0.09619,0.15907 -0.312807,1.30666 -0.913718,2.54056 -2.570467,5.28169 -4.41463,11.45324 -5.20593,17.42303 -0.543429,4.09868 -0.356685,12.51782 0.369389,16.79322 0.46224,2.70697 0.462571,2.9858 10e-4,6.95342 l -0.474788,4.13403 0.999264,0.8871 c 3.95202,3.50644 6.160481,4.89326 9.691764,6.08759 2.068062,0.69856 5.211808,0.61796 9.654116,-0.25065 3.230264,-0.63016 4.259957,-0.70866 9.227407,-0.70524 3.074427,0.001 5.753401,0.10323 5.953197,0.23536 0.40947,0.26322 0.471608,0.68424 2.572101,18.2994 l 1.492355,12.5207 2.414057,5.79976 c 2.879061,6.91819 2.934781,7.01837 8.239261,15.08047 l 4.17023,6.33788 4.68311,2.19635 c 3.00008,1.40711 5.02031,2.19958 5.61981,2.2057 2.08375,0.004 15.68512,-6.22742 22.60929,-10.38585 29.73088,-17.853 51.78482,-47.90745 60.94437,-83.04959 2.66524,-10.22604 4.26958,-20.96237 4.58729,-30.70332 0.18143,-5.77491 0.25691,-6.205 0.97336,-6.205 0.56039,0 0.5622,0.0143 0.39754,5.68366 -1.04073,35.05233 -15.6358,69.68382 -39.82155,94.48953 -8.44632,8.66317 -18.53877,16.51979 -28.66572,22.31686 -13.90761,7.96002 -29.92983,13.33642 -45.763104,15.35561 -7.310477,0.93208 -16.917441,1.19834 -24.07026,0.66705 z m 12.369191,-1.2387 c -0.698259,-0.0504 -1.842433,-0.0504 -2.540383,0 -0.698727,0.0477 -0.126235,0.0919 1.270099,0.0919 1.396948,0 1.969091,-0.008 1.270284,-0.0919 z m 5.082038,-0.26496 c -0.403551,-0.0553 -1.06715,-0.0553 -1.471437,0 -0.403214,0.0536 -0.07113,0.10624 0.735401,0.10624 0.809237,0 1.139945,-0.009 0.736036,-0.10624 z m 11.2268,-1.30819 c -0.0847,-0.0858 -0.32075,-0.0931 -0.51244,-0.004 -0.21268,0.0797 -0.14471,0.14437 0.15785,0.1574 0.28366,0.002 0.44044,-0.009 0.3539,-0.13579 z m -63.045767,-6.52299 c -0.220569,-0.13795 -0.521576,-0.26065 -0.66865,-0.26065 -0.146825,0 -0.08663,0.11329 0.133347,0.26065 0.220989,0.13835 0.52156,0.26072 0.668038,0.26072 0.146773,0 0.08704,-0.11446 -0.133013,-0.26072 z m -1.337122,-0.53415 c -0.221498,-0.139 -0.52138,-0.26004 -0.668727,-0.26004 -0.147527,0 -0.08694,0.11239 0.134057,0.26004 0.220866,0.13827 0.52141,0.26112 0.668505,0.26112 0.148361,0 0.08706,-0.11563 -0.13357,-0.26112 z m -1.604593,-0.66782 c -0.365689,-0.21203 -0.789201,-0.3887 -0.936389,-0.3887 -0.14713,0 0.006,0.16715 0.401504,0.3887 0.365358,0.21031 0.788686,0.38748 0.936133,0.38748 0.147321,0 -0.006,-0.16918 -0.401303,-0.38748 z m -1.872428,-0.80297 c -0.365622,-0.21025 -0.78908,-0.38838 -0.935909,-0.38838 -0.147284,0 0.006,0.16832 0.401469,0.38838 0.365833,0.21151 0.7889,0.38828 0.935891,0.38828 0.147593,0 -0.006,-0.16833 -0.401382,-0.38828 z m -6.552169,-3.16968 c -5.638442,-2.90473 -8.630476,-4.65374 -13.23884,-7.73892 -14.20323383,-9.50614 -27.29443,-22.78598 -36.703632,-37.23226 -3.014521,-4.62888 -5.131997,-8.32406 -8.276628,-14.44225 -1.436267,-2.79558 -2.61474,-4.98486 -2.61877,-4.86788 -0.003,0.4298 5.366495,10.8475 7.169388,13.87453 11.322602,19.01291 27.1920574,35.13519 45.510909,46.23547 2.924358,1.77203 12.772084,6.92392 13.238731,6.92592 0.147723,0.001 -2.13949,-1.23908 -5.081158,-2.75461 z m 57.902817,-54.72698 4.413075,-0.22067 -4.81432,0.0531 c -2.909587,0.008 -5.078726,0.1727 -5.482813,0.36536 -0.600434,0.2734 -0.557904,0.2929 0.401292,0.15739 0.58855,-0.0763 3.055205,-0.24742 5.482766,-0.36623 z m 6.613936,0.0947 c -0.08481,-0.0833 -0.321709,-0.0928 -0.510915,-0.004 -0.212365,0.0826 -0.147338,0.14484 0.15895,0.15756 0.283051,0.002 0.437975,-0.0145 0.352613,-0.13653 z M -34.067862,172.498 c -0.665245,-1.55169 -0.688565,-2.44403 -0.0744,-2.80187 0.257544,-0.14612 0.340943,-0.2783 0.185393,-0.28211 -0.155815,-0.001 -0.511235,0.15493 -0.789813,0.36308 -0.492378,0.36062 -0.485304,0.41869 0.245759,2.28873 0.413939,1.05488 0.802439,1.86781 0.863408,1.80656 0.06146,-0.0541 -0.133237,-0.67908 -0.430739,-1.37481 z m 90.850589,-4.62548 c -0.05985,-0.40463 -0.112322,-0.1321 -0.115249,0.59836 -0.001,0.73562 0.008,1.06843 0.113293,0.73902 0.06286,-0.32934 0.06501,-0.93044 10e-4,-1.33738 z M 170.59174,141.9515 c -0.18391,-0.0699 -0.48412,-0.0699 -0.66893,0 -0.17673,0.0685 -0.006,0.1303 0.33458,0.1303 0.37199,0 0.517,-0.0569 0.33569,-0.1303 z m 2.40654,-0.28004 c -0.3326,-0.0579 -0.87273,-0.0579 -1.20287,0 -0.33302,0.0595 -0.0545,0.1136 0.60228,0.1136 0.66061,0 0.93104,-0.0379 0.60059,-0.1136 z m 1.87718,-0.25426 c -0.17798,-0.0667 -0.54146,-0.072 -0.802,-0.002 -0.26311,0.0631 -0.10718,0.12403 0.33193,0.12833 0.44003,0.001 0.65427,-0.0391 0.47114,-0.11907 z m 1.19363,-0.25503 c -0.0845,-0.0853 -0.32046,-0.0934 -0.51044,-0.004 -0.21675,0.0814 -0.14698,0.14371 0.15843,0.15731 0.28211,0.002 0.43665,-0.0367 0.35327,-0.13475 z m 1.06889,-0.26842 c -0.0816,-0.0858 -0.32187,-0.0942 -0.51002,-0.004 -0.21608,0.0806 -0.14698,0.14464 0.15705,0.15829 0.28178,0.002 0.43953,-0.0388 0.35394,-0.13561 z m 3.8213,-1.60273 c 2.13343,-1.09345 6.02244,-4.17469 7.75205,-6.14308 0.36812,-0.41636 -0.11032,-0.0601 -1.06966,0.79042 -2.92074,2.60547 -5.91082,4.7447 -8.15758,5.83573 -1.17699,0.57175 -1.83868,0.95925 -1.47116,0.86168 0.36881,-0.0948 1.69359,-0.70317 2.94635,-1.34475 z m 16.31023,-26.03144 c 0,-0.69965 -0.71293,-1.3631 -1.42237,-1.32541 -0.54315,0.0144 -0.54537,0.0359 -0.008,0.15999 0.78082,0.18966 1.20358,0.6056 1.20358,1.17646 0,0.27683 0.0517,0.50025 0.13042,0.50025 0.0695,0 0.13027,-0.23121 0.13027,-0.51604 z m -113.064164,0.0482 c -0.772749,-0.0482 -2.035831,-0.0482 -2.808621,0 -0.771979,0.0467 -0.135742,0.0945 1.404483,0.0945 1.544075,0 2.176715,-0.0424 1.404138,-0.0945 z m 5.206717,-1.13223 c 0.664423,-0.4048 1.203488,-1.23934 2.354033,-3.64114 0.820516,-1.71369 1.453821,-3.15432 1.40665,-3.20105 -0.008,-0.0447 -0.673437,1.06788 -1.392237,2.4772 -0.718248,1.40881 -1.808742,3.08626 -2.423319,3.72701 -1.235038,1.28979 -1.223966,1.41789 0.05006,0.63798 z M 74.24255,110.96956 c 0,-0.15977 -2.580728,-1.47986 -2.865897,-1.4628 -0.11354,0.001 0.450871,0.36203 1.261327,0.78981 1.641665,0.86701 1.60457,0.85157 1.60457,0.67299 z m 111.79401,-1.03269 c 0,-0.0464 -0.27051,-0.3216 -0.60144,-0.60175 l -0.60173,-0.50913 0.50844,0.60168 c 0.4779,0.5645 0.69412,0.72337 0.69412,0.50866 z M 61.706195,75.06732 c 0.331933,-0.424326 0.324885,-0.433754 -0.100842,-0.101085 -0.447045,0.34963 -0.587159,0.568999 -0.366088,0.568999 0.05345,0 0.267646,-0.210556 0.469284,-0.468142 z m 2.674608,-2.407072 c 0.331529,-0.424308 0.322756,-0.433735 -0.100873,-0.100944 -0.444851,0.34949 -0.587734,0.568959 -0.368697,0.568959 0.05264,0 0.26706,-0.210447 0.469399,-0.468107 z m 2.774367,-2.473865 c 0.26711,-0.294199 0.418106,-0.534842 0.352952,-0.534842 -0.06769,0 -0.353091,0.240671 -0.617801,0.534842 -0.266918,0.294103 -0.418202,0.53471 -0.352046,0.53471 0.0691,0 0.354812,-0.240673 0.617566,-0.53471 z m 2.541337,-2.273396 c 0.3469,-0.367594 0.566699,-0.668605 0.492758,-0.668605 -0.07026,0 -0.412137,0.301066 -0.761547,0.668605 -0.345733,0.367466 -0.567949,0.668663 -0.493903,0.668663 0.06769,0 0.41149,-0.300826 0.761749,-0.668663 z m 2.673831,-2.407084 c 0.347714,-0.36751 0.566569,-0.668538 0.494634,-0.668538 -0.07039,0 -0.41269,0.300589 -0.761539,0.668538 -0.350486,0.367522 -0.567642,0.668739 -0.495514,0.668739 0.07138,0 0.412553,-0.301082 0.761854,-0.668739 z m 2.942375,-2.674436 c 0.496532,-0.514819 0.846041,-0.936092 0.773449,-0.936092 -0.07026,0 -0.541523,0.421307 -1.040985,0.936092 -0.498669,0.514885 -0.847691,0.936064 -0.774484,0.936064 0.06821,0 0.542006,-0.421504 1.04202,-0.936064 z m 2.674535,-2.407022 c 0.498047,-0.514949 0.847007,-0.936113 0.7732,-0.936113 -0.06866,0 -0.541262,0.421254 -1.040495,0.936113 -0.498331,0.514961 -0.847704,0.936076 -0.773663,0.936076 0.06961,0 0.540894,-0.420978 1.040958,-0.936076 z M 81.73195,56.89186 c 0,-0.200674 -0.242206,0.002 -1.348757,1.192352 l -1.192997,1.270432 1.270904,-1.192308 c 0.698445,-0.655837 1.27085,-1.227567 1.27085,-1.270476 z m 1.737813,-1.415255 c 0.724517,-0.735432 1.256707,-1.337228 1.183449,-1.337228 -0.0704,0 -0.726354,0.601796 -1.450984,1.337228 -0.724502,0.73554 -1.256656,1.337292 -1.183587,1.337292 0.07083,0 0.726632,-0.601752 1.451122,-1.337292 z m 58.757987,-2.486996 c -1.21568,-1.221385 -2.59749,-2.439603 -3.07074,-2.706908 -0.76451,-0.43227 -0.74149,-0.387629 0.21221,0.404403 0.58797,0.489757 1.91193,1.705949 2.94136,2.702456 2.63041,2.544712 2.57401,2.268667 -0.0765,-0.400408 z M 90.480188,48.956846 c 0.09297,-0.164719 -1.106931,0.888468 -2.680028,2.340828 -1.572826,1.452375 -2.859048,2.699149 -2.859048,2.770764 0,0.172464 5.307366,-4.725422 5.539076,-5.111592 z M 106.97524,13.955231 c 0.7022,-1.287067 1.21318,-2.340165 1.13673,-2.340165 -0.44467,0 -7.96014,14.917317 -7.91568,15.715232 10e-4,0.109014 1.24668,-2.329369 2.75764,-5.418387 1.50942,-3.08902 3.31938,-6.669564 4.02131,-7.95668 z m 2.03643,-3.677397 c 0.15267,-0.2941659 0.22544,-0.534787 0.14806,-0.534787 -0.0674,0 -0.26451,0.2406211 -0.41418,0.534787 -0.15205,0.294205 -0.22592,0.534848 -0.14864,0.534848 0.0692,0 0.26566,-0.240584 0.41492,-0.534848 z m 2.91312,-4.6803925 c 1.02393,-1.4265942 1.52694,-1.5166727 1.86839,-0.3343051 0.35771,1.2325621 0.31283,0.063159 -0.0557,-1.5313429 l -0.31093,-1.3307908 -1.17544,1.9993995 c -1.47451,2.5100343 -1.41542,2.4005441 -1.29227,2.4005441 0.0528,0 0.49126,-0.5414017 0.96882,-1.2035048 z"
       id="path4839"
       inkscape:connector-curvature="0" />
    <path
       style="fill:#000000;fill-opacity:1;stroke:#000000;stroke-width:0.26745012;stroke-opacity:1"
       d="m 72.370338,253.64165 c -15.431246,-1.33638 -29.858662,-5.36226 -43.995094,-12.27849 -43.322156,-21.19455 -71.995757,-65.49018 -75.57523,-116.74954 -0.636511,-9.11505 -0.04624,-22.84265 1.377091,-32.093837 7.768585,-50.447037 40.4470409,-92.18197838 85.296885,-108.935776 31.93619,-11.929615 67.17066,-9.977708 97.75913,5.415742 12.34559,6.212639 23.03223,13.9718791 33.17184,24.086234 10.99426,10.96708 19.55828,22.884317 26.33032,36.641926 9.04767,18.381574 14.33088,39.180744 14.89354,58.638331 0.1582,5.63492 0.15668,5.68311 -0.39561,5.68311 -0.73997,0 -0.79985,-0.28898 -0.99665,-4.81375 C 209.58999,94.331246 207.13025,81.110259 202.47633,67.521884 196.74277,50.785953 188.53271,36.188539 177.19252,22.566947 173.84102,18.542179 165.50831,10.154368 161.83042,7.103141 143.58885,-8.0280167 124.081,-17.212082 102.18925,-20.976204 90.766112,-22.94017 77.387636,-23.137541 65.691299,-21.514414 33.087796,-16.990723 3.0653873,1.059832 -17.595567,28.560916 c -5.309711,7.067655 -9.087463,13.223795 -13.244207,21.583278 -7.97072,16.029219 -12.563476,32.09622 -14.521253,50.800506 -0.475724,4.54511 -0.474957,23.55158 10e-4,28.08177 0.837369,7.9676 1.99791,14.48426 3.977291,22.33233 1.236678,4.90365 3.78849,13.02635 4.900112,15.59815 0.710811,1.64411 0.552207,1.63547 4.181824,0.23011 l 2.189086,-0.8484 L -6.5890972,139.81515 16.933788,113.29178 53.007825,80.784289 89.083726,48.276385 94.680272,35.898382 C 102.50956,18.581643 103.6823,16.182807 107.69433,9.2873445 c 4.89577,-8.41438532 4.92784,-8.45950337 5.9398,-8.2571375 0.4494,0.089498 0.85884,0.2039334 0.9091,0.2539458 0.009,0.047626 1.36157,5.9155641 2.91743,13.0354082 l 2.82691,12.945031 2.45053,4.739238 2.45143,4.739131 1.56231,-1.529737 c 0.85889,-0.841442 3.61643,-3.732275 6.12754,-6.424166 3.23766,-3.471466 4.629,-4.793143 4.7848,-4.546623 0.11862,0.190895 0.22496,5.611368 0.2277,12.044769 l 0.001,11.697054 1.53746,0.78525 c 1.25982,0.643323 3.81858,3.075532 14.14466,13.443277 6.93406,6.961913 12.81594,13.072121 13.0718,13.578204 0.36191,0.719621 0.54112,2.292129 0.81822,7.203145 l 0.35503,6.282768 1.24658,1.824665 c 1.46074,2.137676 4.70487,5.905231 6.06472,7.043486 0.52283,0.438037 3.3557,2.979577 6.29395,5.648127 2.93809,2.6689 5.6284,5.03658 5.97933,5.26247 0.36866,0.23819 2.44149,0.65088 4.91526,0.98024 5.50099,0.7332 5.58388,0.76689 6.1099,2.498 0.63463,2.08401 0.9771,5.19358 0.9771,8.86204 v 3.29394 l -5.28174,5.20832 c -8.23796,8.12318 -9.51677,9.19656 -13.09383,10.99427 -4.65341,2.33947 -10.59545,3.01441 -28.9633,3.28952 -8.63352,0.12733 -10.13432,0.0888 -10.78731,-0.25326 -0.41613,-0.22701 -3.35001,-3.73698 -6.6057,-7.92237 -12.91462,-16.60219 -20.64883,-25.44448 -29.77538,-34.04632 -4.958746,-4.67327 -5.674824,-5.243416 -6.079665,-4.838787 -0.144106,0.146401 -1.86337,3.684447 -3.816332,7.862527 -3.889024,8.32228 -3.913753,8.35539 -6.698134,9.23504 -1.886207,0.59533 -7.225565,0.79716 -9.323988,0.35376 -1.14505,-0.24407 -5.04214,-2.03249 -12.756207,-5.85726 -6.109102,-3.02924 -11.756081,-5.77553 -12.548695,-6.10289 l -1.440954,-0.59511 0.168562,1.42921 c 0.329497,2.79626 4.443288,14.37964 6.670923,18.77829 0.516016,1.02176 1.790268,2.97513 2.827197,4.34163 2.103955,2.76843 2.056895,2.31345 0.569325,5.53925 -3.050114,6.61601 -4.808864,13.5574 -5.217965,20.59408 -0.190051,3.28107 0.210863,10.36462 0.77287,13.63971 0.323019,1.87358 0.313661,2.64989 -0.07786,6.24431 l -0.446796,4.10608 1.742421,1.59645 c 2.35211,2.15565 5.006932,3.87983 7.470467,4.85412 2.96116,1.16986 5.706037,1.25873 10.677342,0.34772 3.354332,-0.61636 4.489025,-0.69852 9.691644,-0.69852 h 5.89207 l 0.247303,0.64809 c 0.212131,0.54961 1.669403,12.06375 3.372925,26.59041 0.448259,3.83498 0.449475,3.83816 2.823974,9.47816 2.908183,6.90735 3.229523,7.49492 8.310173,15.22022 l 4.07533,6.19591 3.75076,1.79456 c 5.37607,2.57113 6.25229,2.84922 7.7348,2.45309 3.44694,-0.92231 15.90884,-6.87643 21.82026,-10.42565 13.89105,-8.34153 27.23975,-20.5625 37.32092,-34.16869 16.66487,-22.49171 26.32648,-49.83275 27.69056,-78.35661 0.33234,-6.9261 0.35748,-7.09358 1.05923,-7.09358 0.50115,0 0.52917,0.18941 0.52917,3.82407 0,9.0662 -1.4882,20.50519 -4.02582,30.94419 -7.62397,31.36411 -25.07797,58.6695 -49.80452,77.91578 -17.92014,13.94804 -39.51645,22.74914 -62.509754,25.47393 -4.261886,0.50541 -18.72698,0.7335 -23.001607,0.36509 z m 10.625941,-69.41442 c -0.08413,-0.0863 -0.320645,-0.0934 -0.51245,-0.004 -0.215098,0.0814 -0.148833,0.14408 0.157622,0.15765 0.284595,0.002 0.437338,-0.0153 0.353112,-0.13446 z M -34.556535,170.50927 c 0.08369,-0.57558 0.003,-0.73842 -0.252227,-0.63407 -0.200968,0.072 -0.298856,0.31652 -0.21716,0.5279 0.08048,0.21484 0.149736,0.49781 0.149736,0.63416 0,0.54777 0.213989,0.19497 0.32067,-0.52799 z M 184.60337,136.72194 c 0.0957,-0.16417 -0.2558,0.0235 -0.79423,0.44169 -0.53939,0.41003 -0.98158,0.80292 -0.98158,0.86901 0,0.18119 1.5645,-0.97186 1.77581,-1.31467 z m 1.03252,-0.74129 c 0.26759,-0.29464 0.41745,-0.53457 0.35298,-0.53457 -0.0677,0 -0.35336,0.24223 -0.61778,0.53457 -0.26802,0.29376 -0.41822,0.53442 -0.35314,0.53442 0.0657,0 0.3537,-0.24485 0.61796,-0.53442 z M 90.060836,111.46684 c 0.493719,-0.55941 1.645882,-2.76631 1.444606,-2.76631 -0.06833,0 -0.325052,0.36841 -0.554456,0.81834 -0.233149,0.44977 -0.86766,1.31198 -1.411154,1.91548 -0.59496,0.661 -0.774044,0.98319 -0.4493,0.81089 0.29579,-0.15538 0.733857,-0.50666 0.972356,-0.7784 z M 113.44243,4.4990406 c 0.36243,0.1383025 0.41169,0.052408 0.28643,-0.4345034 -0.0846,-0.3330167 -0.16239,-0.7819422 -0.16239,-0.9973579 -10e-4,-0.3438071 -0.008,-0.3438071 -0.36434,0 -0.19554,0.2151192 -0.64025,0.8730187 -0.98199,1.4614221 l -0.62382,1.0697587 0.70261,-0.6355618 c 0.43287,-0.3958471 0.86996,-0.5708576 1.14839,-0.4641621 z"
       id="path4841"
       inkscape:connector-curvature="0" />
    <path
       style="fill:#000000;fill-opacity:1;stroke:#000000;stroke-width:0.26745012;stroke-opacity:1"
       d="M 72.771993,253.75538 C 52.306719,252.09006 32.01655,245.02548 14.370591,233.42213 4.1211288,226.68187 -6.4832029,217.29415 -13.977402,208.32544 c -19.356977,-23.16471 -30.752299,-51.52169 -33.198369,-82.61369 -0.349309,-4.44107 -0.347598,-16.60276 0.0012,-21.42396 1.093468,-15.027882 4.554809,-30.239385 10.011061,-43.995548 1.959267,-4.939678 6.409422,-14.101225 9.102761,-18.74024 C -17.435334,23.252455 -2.9121086,7.7199952 14.064863,-3.5007897 43.331845,-22.844049 78.291224,-28.910382 111.96085,-20.488088 c 8.45343,2.114852 15.79763,4.835945 24.19556,8.965109 13.49441,6.6354725 23.44244,13.7902554 34.38115,24.72983 11.46081,11.460452 19.71224,23.051923 26.75093,37.57593 8.69992,17.95291 13.85732,38.55932 14.34479,57.316079 0.14795,5.90339 0.14614,5.95049 -0.40287,5.95049 -0.30775,0 -0.61651,-0.0903 -0.68836,-0.21183 -0.0693,-0.11488 -0.26426,-2.6137 -0.41527,-5.54961 -0.155,-2.93622 -0.40906,-6.54195 -0.55931,-8.01288 C 207.82165,83.11921 203.15531,66.654765 195.69214,51.316884 191.07459,41.826637 185.64975,33.218027 179.17901,25.108436 175.4969,20.494428 165.21098,9.9384879 161.1697,6.6268252 140.99364,-9.9082361 119.14658,-19.259021 94.307545,-21.991532 88.602832,-22.619001 75.719141,-22.618148 70.033906,-21.990417 44.04643,-19.118498 20.681855,-8.707288 0.51651847,8.9868122 -3.0548581,12.120486 -9.828203,19.090146 -12.956593,22.850345 c -7.427257,8.927397 -12.498795,16.726322 -17.738186,27.277483 -7.5064,15.116818 -11.635762,28.692509 -14.114491,46.402788 -0.481762,3.442718 -0.579133,5.735574 -0.686292,16.165394 -0.152047,14.82978 0.164932,19.11176 2.222775,29.96946 1.283862,6.77574 4.239431,17.43321 6.378794,23.0013 1.051867,2.73729 1.164396,2.77638 4.422741,1.53323 l 2.266533,-0.86474 23.8099336,-26.8055 L 17.415088,112.72377 53.120116,80.60708 88.824874,48.489928 93.553192,38.142839 C 101.3359,21.111943 103.16497,17.215251 104.56225,14.6907 c 2.34574,-4.236895 6.90765,-12.0064258 7.57839,-12.9044561 0.64277,-0.86182092 1.44852,-1.09934404 2.17224,-0.6402263 0.40342,0.2562849 0.33605,-0.034762 3.53724,14.6144364 l 2.45665,11.232929 2.39322,4.747242 c 1.31719,2.61101 2.49377,4.747213 2.61555,4.747213 0.11959,0 2.90114,-2.837351 6.1752,-6.3053 4.28844,-4.542448 6.01603,-6.206148 6.17823,-5.950737 0.12067,0.195047 0.22774,5.614351 0.22978,12.042872 l 0.001,11.688595 1.19416,0.528123 c 1.51158,0.668481 9.68874,8.493106 20.07604,19.210271 8.82281,9.102579 7.93949,7.424699 8.41551,15.990964 0.33797,6.084039 0.30183,5.971176 3.18912,9.554665 2.94539,3.654317 15.58894,15.316349 17.23705,15.899499 0.48725,0.17223 2.66415,0.57207 4.83585,0.88763 2.17103,0.31702 4.21,0.69373 4.53006,0.84002 1.26746,0.57688 1.7689,2.90174 1.95359,9.05805 l 0.14302,4.94737 -6.41661,6.1757 c -3.5293,3.39671 -7.12466,6.71948 -7.98957,7.3838 -2.9899,2.29613 -5.76312,3.57193 -9.46334,4.35238 -4.06056,0.85716 -15.25782,1.47734 -26.65723,1.47769 l -7.53484,5e-4 -0.75569,-0.75683 c -0.4118,-0.41379 -3.34431,-4.05643 -6.50676,-8.08808 -6.94172,-8.8507 -10.76884,-13.55923 -15.19879,-18.70198 -3.71436,-4.3119 -17.91417,-18.596475 -19.200429,-19.314353 l -0.821245,-0.458722 -1.763638,3.668185 c -0.97009,2.01769 -2.655083,5.54232 -3.74471,7.83305 -2.135423,4.49148 -2.472898,4.8894 -4.871408,5.74181 -1.931476,0.68684 -8.094894,0.86896 -10.060455,0.29779 -0.791586,-0.23202 -6.193054,-2.75239 -12.004334,-5.60516 -11.866643,-5.82646 -13.852597,-6.74859 -14.06949,-6.53112 -0.573233,0.57282 2.879304,11.19337 5.803736,17.85451 0.979968,2.23158 2.6687,4.99015 4.428734,7.23364 l 1.171075,1.49253 -0.386535,1.04812 c -0.209051,0.57677 -0.763741,1.88194 -1.23185,2.90178 -2.053389,4.46875 -3.638195,9.91886 -4.437591,15.26332 -0.355735,2.37892 -0.407652,4.14418 -0.283459,9.22708 0.08563,3.45656 0.334747,7.36853 0.550908,8.69211 0.351008,2.14512 0.346463,2.84946 -0.006,6.476 -0.49243,4.71022 -0.705509,4.13207 2.447449,6.66792 2.457922,1.97661 4.713813,3.31444 6.996494,4.15 2.15298,0.78834 6.196904,0.75615 11.075579,-0.0847 3.145011,-0.54271 4.330187,-0.61503 9.131899,-0.54706 5.437628,0.0707 5.519762,0.0827 5.674065,0.66964 0.08314,0.32529 0.766015,5.58549 1.511379,11.69025 2.523759,20.66973 2.083242,18.29077 4.416957,23.86624 2.792629,6.67155 3.761919,8.46145 8.510699,15.70236 l 4.11279,6.27099 3.84623,1.81624 c 5.33745,2.52055 6.15211,2.74586 7.9814,2.20197 3.91778,-1.16351 16.3567,-7.21218 22.2041,-10.79714 27.26398,-16.71472 48.38785,-44.60868 58.03663,-76.63723 3.77576,-12.53418 5.57078,-23.54924 6.31133,-38.71884 0.14009,-2.99062 0.23251,-3.44903 0.67825,-3.68908 0.39807,-0.21403 0.54837,-0.17548 0.67957,0.16122 0.28386,0.73648 -0.11665,12.06771 -0.56217,15.89998 -3.08208,26.56723 -12.71261,50.96702 -28.1813,71.39772 -12.6055,16.64883 -28.4662,29.84909 -46.45085,38.65683 -13.1388,6.43511 -25.79361,10.19799 -40.518306,12.04931 -3.22269,0.40396 -19.836413,0.75329 -23.134368,0.48359 z M 90.326722,111.026 c 0.306874,-0.58313 0.305274,-0.5836 -0.267059,-0.0745 -0.315156,0.28105 -0.574232,0.61816 -0.574232,0.75145 0,0.37672 0.495958,-0.004 0.839927,-0.67388 z M 113.30618,4.3951529 c 0.33149,0 0.4082,-0.1725436 0.31863,-0.6686005 -0.1622,-0.8655765 -0.41995,-0.8458979 -0.88296,0.067071 -0.5774,1.1496412 -0.61348,1.2947936 -0.23459,0.9361403 0.19248,-0.1842683 0.55321,-0.334305 0.79805,-0.334305 z"
       id="path4843"
       inkscape:connector-curvature="0" />
    <path
       style="fill:#000000;fill-opacity:1;stroke:#000000;stroke-width:0.26745012;stroke-opacity:1"
       d="m 71.969249,253.76583 c -0.438336,-0.0573 -2.366558,-0.30566 -4.278446,-0.53101 -38.469011,-4.62044 -73.626293,-28.02582 -94.634478,-63.00285 -10.670428,-17.76501 -17.16018,-37.24909 -19.863939,-59.63648 -0.579462,-4.79839 -0.811434,-20.70951 -0.386862,-26.54187 1.843488,-25.326965 10.206191,-49.774155 24.150291,-70.600633 4.946739,-7.388038 9.877652,-13.338019 16.7766479,-20.243668 C 4.2375338,2.69424 14.016843,-4.4514223 26.636473,-10.832832 c 17.711105,-8.956299 36.081622,-13.388167 55.496674,-13.388167 30.302253,0 59.342913,11.185854 82.641503,31.8318547 3.97146,3.5189043 10.61781,10.3596063 14.0145,14.4229103 7.64056,9.140627 12.96574,17.397506 18.36647,28.478754 8.79264,18.038719 13.5905,36.810815 14.54782,56.91693 0.28222,5.9274 0.16449,6.94989 -0.75501,6.70839 -0.46667,-0.11862 -0.54397,-0.45482 -0.69575,-2.98734 -0.43711,-7.36275 -1.01145,-13.592068 -1.63379,-17.787164 -2.2261,-15.009232 -6.86643,-29.729928 -13.63897,-43.27042 -3.12808,-6.253929 -4.92503,-9.351184 -8.82426,-15.207542 C 180.65325,26.621485 176.66111,21.807354 168.65218,13.77795 163.53165,8.644569 160.71835,6.1928304 155.41382,2.2399788 137.68617,-10.968889 118.6265,-18.704679 96.410662,-21.708051 92.21179,-22.275643 77.390408,-22.515403 72.231882,-22.099182 42.413,-19.69283 13.330983,-5.3884418 -7.8808162,17.304973 -17.592609,27.695336 -24.045068,37.007528 -30.532658,49.996271 -38.445229,65.837607 -43.177623,81.92046 -45.05245,99.340722 c -0.475267,4.415188 -0.497333,27.234428 -0.02668,31.291458 1.165849,10.13071 3.516199,20.72221 6.914167,31.15801 1.391844,4.27467 2.098117,5.91307 2.638442,6.12056 0.207555,0.075 1.464731,-0.23568 2.793571,-0.69558 l 2.416178,-0.84033 L -6.8528984,139.91236 16.610957,113.44981 52.716747,80.91225 88.822654,48.374551 95.141588,34.554778 C 102.94307,17.494667 103.8953,15.569767 108.05117,8.4589258 c 4.21577,-7.2122576 4.50184,-7.59480394 5.60211,-7.48795266 1.08949,0.10609966 0.92091,-0.47774315 4.14282,14.26597086 l 2.63102,12.044451 2.41173,4.620043 2.41261,4.620073 6.09274,-6.293741 c 3.35213,-3.46151 6.19739,-6.229602 6.32509,-6.151325 0.12355,0.07908 0.23316,2.041423 0.23316,4.362343 0,2.320954 0.0742,7.668907 0.17177,11.884486 l 0.17414,7.664489 1.36384,0.769922 c 1.54574,0.872442 15.11985,14.07984 22.50387,21.896388 5.37814,5.69306 5.05383,4.97455 5.46455,12.10487 0.14439,2.574066 0.34143,5.128626 0.41866,5.676389 0.32814,2.089103 3.67755,6.207811 9.3378,11.474387 4.00719,3.728911 9.24125,8.346461 10.09598,8.906041 0.36242,0.23896 2.56878,0.72027 5.03628,1.10159 2.41579,0.37357 4.61419,0.74586 4.88647,0.82807 1.26987,0.38245 2.04621,4.30969 2.04621,10.34881 v 3.79509 l -3.67785,3.62262 c -10.80478,10.64242 -13.20523,12.46357 -18.3015,13.88824 -4.21701,1.17882 -14.49784,1.8724 -27.76609,1.8724 -8.19393,0 -8.26757,-0.001 -8.9239,-0.60165 -0.36371,-0.33195 -3.45879,-4.15263 -6.87552,-8.49164 -7.44328,-9.45305 -9.80303,-12.36428 -13.85765,-17.09699 -5.60284,-6.54169 -20.034965,-20.985874 -20.810654,-20.829255 -0.233528,0.0447 -1.908747,3.224755 -3.973881,7.535185 -1.963398,4.09924 -3.785759,7.69764 -4.050913,7.99569 -1.216792,1.37198 -4.197223,2.10077 -8.589902,2.1005 -3.921573,-1.5e-4 -4.537669,-0.2123 -13.420502,-4.61336 -11.020408,-5.46079 -16.429462,-7.97996 -16.653677,-7.7559 -0.470644,0.47043 2.071929,8.58285 4.774886,15.23321 1.620645,3.98768 2.841837,6.19878 5.037332,9.12004 0.820885,1.09237 1.492483,2.09197 1.492483,2.22122 0,0.12802 -0.733151,1.94251 -1.629201,4.02838 -1.782417,4.14981 -3.093102,8.38956 -4.042146,13.07323 -0.548308,2.70392 -0.609417,3.71819 -0.575137,9.44785 0.004,4.16079 0.190075,7.56936 0.470142,9.68782 0.392082,2.9509 0.395096,3.63781 0.006,7.04805 -0.290902,2.75025 -0.320328,3.92561 -0.108094,4.31747 0.714147,1.33429 4.554102,4.20133 7.703723,5.75227 2.423293,1.19307 2.628301,1.24484 5.349202,1.35683 1.556255,0.0588 3.732111,-0.004 4.835342,-0.19414 7.161519,-1.12042 7.28509,-1.12982 12.353545,-0.93959 3.656041,0.13244 5.034134,0.27987 5.129007,0.52697 0.06738,0.18127 0.685387,4.83479 1.36321,10.33006 2.673925,21.66221 2.37063,20.1075 5.221347,26.79726 2.159818,5.07082 3.717508,7.87815 8.160498,14.71294 l 3.74458,5.7591 3.20921,1.52907 c 4.59182,2.1863 6.14155,2.78036 7.25632,2.78036 1.89691,0 13.11236,-5.04653 20.80718,-9.36077 13.77041,-7.72336 28.28876,-20.73939 38.92966,-34.90204 10.74359,-14.30002 19.05788,-31.71632 23.49101,-49.21083 2.67631,-10.55997 3.89037,-18.7893 4.59753,-31.15855 0.21267,-3.68063 0.38775,-5.04745 0.67257,-5.33746 0.31556,-0.31545 0.45432,-0.32594 0.7262,-0.0473 0.708,0.71207 0.11762,12.61742 -1.02083,20.63359 -4.44331,31.23759 -18.37036,59.48516 -39.95534,81.04052 -20.50857,20.48066 -45.69226,32.85667 -74.359228,36.54257 -2.944264,0.38565 -22.222251,0.75295 -24.204218,0.46971 z M 113.55776,3.8290326 c 0,-0.653835 -0.44008,-0.6462644 -0.79308,0.00219 -0.38951,0.7168008 -0.35579,0.7899288 0.25905,0.6299814 0.29719,-0.077652 0.53445,-0.3646085 0.53445,-0.6436027 z"
       id="path4845"
       inkscape:connector-curvature="0" />
    <path
       style="fill:#000000;fill-opacity:0;stroke:#000000;stroke-width:0.26745012;stroke-opacity:1"
       d="m 68.091949,253.36667 c -20.324889,-2.66216 -37.805103,-9.22564 -54.765053,-20.56198 -32.517832,-21.73547 -54.049034,-57.24458 -59.683324,-98.42881 -0.942957,-6.89285 -1.155577,-11.4905 -1.017476,-22.00302 0.128406,-9.79949 0.324679,-12.575287 1.388268,-19.655377 3.726183,-24.808788 14.115082,-48.970964 29.206231,-67.927222 C -11.529524,18.19595 -3.8073759,10.272524 2.5426101,4.9648166 19.528486,-9.233213 39.797909,-18.715481 61.167168,-22.460452 c 7.95906,-1.394877 10.93545,-1.624876 20.965947,-1.620712 9.960706,0.001 12.697942,0.214552 20.994175,1.616668 21.52092,3.636215 42.59226,13.6797191 60.07962,28.6366796 3.78045,3.2333028 12.44545,11.9915184 15.57386,15.7409424 17.78464,21.318071 29.03762,47.864615 32.25135,76.089562 0.65284,5.728302 1.07418,14.887112 0.72033,15.662792 -0.15775,0.36001 -0.0511,5.61395 -0.16653,5.61163 -0.7616,-0.003 -1.22129,-5.63156 -1.60692,-11.3944 -0.22309,-3.30098 -0.58951,-7.68699 -0.81732,-9.746638 C 205.92512,68.933926 192.97474,39.967142 173.9325,19.338638 161.9008,6.303907 150.42552,-2.4389719 135.761,-9.7451178 124.00229,-15.603296 112.09328,-19.319154 98.718974,-21.303353 91.291795,-22.405242 76.384782,-22.602034 68.76459,-21.699014 48.931243,-19.348094 30.50523,-12.432948 13.670068,-1.0219671 -2.4670581,9.9155643 -16.786198,25.414207 -26.423156,42.373547 c -8.794135,15.476093 -14.582598,31.640795 -17.382397,48.541217 -1.334549,8.055765 -1.363396,8.570428 -1.363396,24.338126 0,16.52772 0.05955,17.32935 2.032387,27.27998 1.694707,8.54754 5.967888,23.29099 7.187403,24.79619 0.462669,0.57108 0.555427,0.58517 1.764538,0.26458 0.702063,-0.18257 1.910889,-0.60726 2.686526,-0.93214 1.323172,-0.55261 2.796299,-2.15537 23.917391,-25.99809 C 4.7981657,126.68878 15.486083,114.67044 16.170327,113.95494 16.854275,113.23988 31.254582,100.18209 48.17077,84.938614 65.085957,69.6951 81.154094,55.2131 83.874773,52.756241 l 4.948384,-4.466737 5.458385,-11.983559 C 101.61992,20.195646 104.36988,14.611696 108.08559,8.2754465 c 4.18506,-7.1377011 4.53656,-7.87700534 5.60087,-7.88402335 0.59159,-0.001003 0.74879,0.69690505 0.94715,1.06817035 0.24868,0.4608428 3.7812,16.0322875 5.21932,22.9965865 0.37491,1.795024 0.97663,3.272203 2.87804,7.020589 1.32497,2.610961 2.48838,4.74719 2.58605,4.74719 0.093,0 2.86569,-2.775283 6.15096,-6.16735 3.53426,-3.650125 6.0701,-6.069158 6.21265,-5.926828 0.12813,0.1323 0.31471,5.535612 0.40481,12.007475 l 0.15965,11.76695 1.36224,0.765434 c 0.92263,0.518963 5.03257,4.432288 12.75762,12.1459 12.81164,12.795339 14.1962,14.282081 14.62627,15.719226 0.16437,0.558714 0.42186,3.000182 0.58091,5.425725 0.47671,7.628002 0.48609,7.66059 3.20147,11.034285 2.86324,3.559284 15.32271,15.140724 17.09589,15.891034 0.40859,0.17452 2.72463,0.64171 5.13984,1.03912 2.41472,0.39755 4.58746,0.89273 4.82766,1.10052 0.24256,0.2066 0.63315,1.0794 0.87411,1.93667 0.52352,1.87074 1.08217,9.9333 0.77724,11.25311 -0.16701,0.74668 -1.325,2.01442 -5.69863,6.26484 -3.01542,2.93072 -6.38534,6.10144 -7.48859,7.04616 -5.39319,4.61657 -9.50348,5.80832 -22.33166,6.47612 -6.86188,0.35817 -22.35354,0.46604 -22.83379,0.16102 -0.19824,-0.12414 -2.76966,-3.25593 -5.70428,-6.94934 -8.92854,-11.23848 -12.49431,-15.62211 -16.12159,-19.81723 -3.53778,-4.09243 -17.76957,-18.553607 -19.30199,-19.613252 l -0.843651,-0.583916 -0.791914,1.404078 c -0.431494,0.77242 -2.08399,4.11232 -3.664942,7.42196 -1.580643,3.30983 -3.131546,6.30003 -3.445965,6.64552 -1.387098,1.52028 -4.149905,2.24876 -8.596805,2.26628 -2.136913,0.002 -3.365253,-0.11924 -4.489305,-0.47591 -0.85182,-0.26975 -5.846025,-2.59081 -11.099571,-5.1591 -8.531786,-4.17033 -14.028256,-6.75185 -14.377422,-6.75185 -0.878004,0 3.227679,12.47243 6.030043,18.32036 0.705222,1.4713 2.136953,3.87118 3.181803,5.33337 1.044802,1.46257 1.899497,2.74415 1.899497,2.84898 0,0.10125 -0.83441,2.27786 -1.853859,4.82967 -1.923443,4.81383 -3.18526,9.0873 -3.88837,13.16636 -0.509209,2.96113 -0.551636,12.18932 -0.07537,16.83544 0.390884,3.78258 0.402745,5.57694 0.08682,9.81781 l -0.227229,3.08544 1.396534,1.25506 c 1.875975,1.68699 4.567805,3.44857 7.115984,4.65926 2.076167,0.9862 2.134967,0.99649 5.454459,0.99744 2.240201,5.3e-4 4.644655,-0.20767 7.233475,-0.6252 3.447411,-0.55521 4.440607,-0.60801 8.934396,-0.46951 2.781064,0.0823 5.151926,0.25533 5.267868,0.37124 0.113884,0.11623 0.994671,6.47143 1.952323,14.11962 0.956632,7.6501 1.928611,14.8033 2.160765,15.89849 0.95904,4.53533 5.048726,13.10467 9.770656,20.47537 5.04673,7.87711 4.34217,7.14204 8.86916,9.25182 5.30622,2.47345 5.85277,2.59604 8.16044,1.83861 4.54349,-1.49253 15.52889,-6.82362 21.51527,-10.44035 11.14341,-6.73219 22.65675,-16.76565 31.90784,-27.80389 13.0696,-15.59524 22.99531,-35.2431 28.08884,-55.60391 2.40985,-9.63518 3.6062,-17.97418 4.40959,-30.74351 0.14958,-2.4534 0.28855,-6.71065 0.45617,-6.91542 0.5023,-0.60776 0.70916,-2.64769 1.39732,-1.18327 0.36833,1.66601 -0.43475,16.64901 -1.32603,23.17844 -7.05498,51.89964 -40.94661,95.28602 -87.43748,111.93123 -9.69477,3.47109 -21.86678,6.08641 -31.027965,6.66777 -7.27056,0.46224 -19.508616,0.32319 -24.066936,-0.27585 z M 113.42444,4.1277261 c 0.0872,-0.1474956 0.078,-0.4007951 -0.003,-0.5634628 -0.17453,-0.2906646 -0.63714,0.1549436 -0.64689,0.6303766 -0.001,0.2928918 0.47168,0.2446977 0.66388,-0.067183 z"
       id="path4847"
       inkscape:connector-curvature="0"
       sodipodi:nodetypes="csscsscscssscccscsssssscsccccscsscsccccsscssccsccscccccscsccscccscccssccssscccccccccccccccsscccsccccccccc" />
    <path
       style="fill:#000000;fill-opacity:1;stroke:#000000;stroke-width:1.51292753;stroke-opacity:1"
       id="path4855"
       d="m 113.36352,3.2929068 c 0.0496,0.1603758 0.12171,0.3205186 0.17735,0.4799951 0.009,0.1507718 0.11912,0.2916536 0.1645,0.4427541 0.004,0.086201 0.002,0.044927 0.004,0.1301101 0,0 -0.87142,0.4601723 -0.87142,0.4601723 v 0 c -0.002,-0.079476 -0.001,-0.039308 -0.003,-0.1196262 -0.007,-0.1507673 -0.10215,-0.2907949 -0.15002,-0.4400627 -0.0551,-0.1555978 -0.1204,-0.3122781 -0.18931,-0.4638805 0,0 0.86282,-0.4910092 0.86282,-0.4910092 z"
       inkscape:connector-curvature="0" />
    <rect
       style="opacity:0;fill:none;fill-opacity:1;stroke:none;stroke-width:1.15938735;stroke-opacity:1"
       id="rect4865"
       width="307.42902"
       height="288.9834"
       x="-50.452999"
       y="-29.183413" />
    <path
       style="fill:none;stroke:#000000;stroke-width:0.26458332px;stroke-linecap:butt;stroke-linejoin:miter;stroke-opacity:1"
       d="m 113.84065,1.1533888 c 0.0345,-0.1192133 0.085,-0.23492087 0.10347,-0.35764255 0.0118,-0.0783537 -0.11099,-0.0246592 -0.12948,-0.0431615 -0.0102,-0.01016 0.0102,-0.0329856 0,-0.0431588 -0.0102,-0.0101865 -0.0288,0 -0.0432,0 -0.10071,0 -0.20141,0 -0.30212,0 -0.0432,0 -0.0863,0 -0.12948,0 -0.0144,0 -0.0432,0.0143933 -0.0432,0 0,-0.0287734 0.066,0.0203465 0.0863,0 0.0102,-0.0101865 0,-0.0287734 0,-0.0431615 0.009,0.1174115 0.0181,0.23482299 0.0272,0.35223455"
       id="path168"
       inkscape:connector-curvature="0" />
    <path
       style="fill:none;stroke:#000000;stroke-width:0.26458332px;stroke-linecap:butt;stroke-linejoin:miter;stroke-opacity:1"
       d="m 113.84065,1.1533888 c 0.006,-0.1048279 0.0258,-0.20985689 0.0171,-0.31448372 -10e-4,-0.0143404 -0.0288,0 -0.0432,0 -0.0144,0 -0.0288,0 -0.0432,0 -0.0144,0 -0.033,-0.01016 -0.0432,0 -0.0102,0.01016 0.0102,0.0329883 0,0.0431615 -0.0102,0.0101865 -0.0288,0 -0.0432,0 -0.11509,0 -0.23019,0 -0.34528,0 -0.0159,0 -0.1709,0.001852 -0.17264,0 -0.002,-0.001852 0,-0.15679208 0,-0.17264062 0,-0.0143933 -0.0102,-0.0329883 0,-0.0431615 0.0102,-0.01016 0.033,0.01016 0.0432,0 0.0102,-0.01016 -0.0102,-0.0329856 0,-0.0431588 0.0102,-0.01016 0.0432,-0.0143933 0.0432,0 0,0.0143933 -0.0576,0 -0.0432,0 0.0432,0 0.0863,0 0.12948,0 0.0432,0 0.0863,0 0.12948,0 0.0144,0 0.0432,-0.0143933 0.0432,0 0,0.0143933 -0.0576,0 -0.0432,0 0.0432,0 0.0863,0 0.12948,0 0.0144,0 0.0573,-0.002831 0.0432,0 -0.0858,0.0171715 -0.17271,0.0287734 -0.25906,0.0431588"
       id="path170"
       inkscape:connector-curvature="0" />
    <path
       style="fill:none;stroke:#000000;stroke-width:0.26458332px;stroke-linecap:butt;stroke-linejoin:miter;stroke-opacity:1"
       d="m 113.38294,0.66626446 c 0.17267,-0.0143933 0.34535,-0.0287734 0.51802,-0.0431588 0,0.0143933 -0.0102,0.0329856 0,0.0431588 0.0102,0.01016 0.033,-0.01016 0.0432,0 0.0102,0.01016 -0.006,0.0302921 0,0.0431615 0.0182,0.0363961 0.0681,0.0499242 0.0863,0.0863203 0.009,0.0171185 -0.009,0.12065793 0,0.12947914 0.0102,0.01016 0.033,-0.01016 0.0432,0 0.0204,0.0203465 -0.0203,0.0659765 0,0.0863203 0.0102,0.01016 0.033,-0.01016 0.0432,0 0.0102,0.01016 -0.006,0.030292 0,0.043161 0.009,0.018203 0.0341,0.02495 0.0432,0.043159 0.006,0.012859 -0.0102,0.032988 0,0.043162 0.0102,0.01016 0.033,-0.01016 0.0432,0 0.0102,0.01016 0,0.028773 0,0.043159 0,0.014393 0.0144,0.043162 0,0.043162 -0.0144,0 0,-0.028773 0,-0.043162 0,-0.028773 0,-0.057547 0,-0.08632 0,-0.071932 0,-0.14386717 0,-0.21579944 0,-0.0203465 0.002,-0.21384419 0,-0.2158021 -0.0102,-0.01016 -0.033,0.01016 -0.0432,0 -0.0102,-0.01016 0.0102,-0.0329856 0,-0.0431588 -0.0102,-0.01016 -0.033,0.01016 -0.0432,0 -0.009,-0.008811 0.009,-0.11236854 0,-0.12948179 -0.0898,-0.17962033 0.003,0.0461407 -0.0863,-0.0431588 -0.0102,-0.01016 0.0102,-0.0329882 0,-0.0431615 -0.0102,-0.0101865 -0.0288,0 -0.0432,0 -0.0719,0 -0.14387,0 -0.2158,0 -0.0144,0 -0.033,-0.0101865 -0.0432,0 -0.0102,0.01016 0.0102,0.0329883 0,0.0431615 -0.002,0.001852 -0.19545,0 -0.2158,0 -0.0144,0 -0.0288,0 -0.0432,0 -0.0144,0 -0.033,-0.01016 -0.0432,0 -0.0102,0.01016 0.0102,0.0329856 0,0.0431588 -0.0102,0.01016 -0.0397,-0.0139435 -0.0432,0 -0.014,0.0558218 0.0545,0.15444259 -1e-4,0.17264063 -0.0863,0.0287629 -0.17441,-0.0525251 -0.25886,-0.0863203 -0.0134,-0.005345 0.0575,0 0.0432,0 -0.0288,0 -0.0606,-0.0128588 -0.0863,0 -0.0129,0.006429 0.0102,0.0329883 0,0.0431615 -0.0102,0.01016 -0.033,-0.01016 -0.0432,0 -0.0204,0.0203465 0.0129,0.0605843 0,0.0863203 -0.009,0.0182033 -0.0341,0.0249502 -0.0432,0.0431588 -0.006,0.0128588 0.006,0.0302921 0,0.0431615 -0.009,0.0182033 -0.025,0.0340598 -0.0432,0.0431588 -0.0129,0.006429 -0.0367,-0.0128587 -0.0432,0 -0.0129,0.025744 0.0129,0.0605869 0,0.0863203 -0.006,0.0128587 -0.033,-0.01016 -0.0432,0 -0.0102,0.01016 0,0.0287734 0,0.0431615 0,0.0143933 -0.0138,0.0471143 0,0.0431588 0.10528,-0.0301016 0.20127,-0.0863203 0.30191,-0.12947914"
       id="path172"
       inkscape:connector-curvature="0" />
    <path
       style="fill:none;stroke:#000000;stroke-width:0.26458332px;stroke-linecap:butt;stroke-linejoin:miter;stroke-opacity:1"
       d="m 211.16597,114.23106 c -0.0515,-0.30558 -0.0979,-0.61207 -0.15461,-0.91673 -0.0105,-0.0566 0,0.1151 0,0.17264 0,0.1151 0,0.23019 0,0.34528 0,0.0288 -0.0104,0.0595 0,0.0863 0.042,0.10836 0.15461,0.19628 0.15461,0.31249 0,0.16315 -0.11051,0.30732 -0.15461,0.4644 -0.0156,0.0554 0,0.11509 0,0.17264 0,0.11509 0,0.23018 0,0.34528 0,0.0288 0.0288,0.0863 0,0.0863 -0.0288,0 0,-0.0576 0,-0.0863 0,-0.0576 0,-0.1151 0,-0.17264 0,-0.0657 -0.0136,-0.48462 0,-0.51792 0.0417,-0.10188 0.23243,-0.36958 0.15461,-0.29176 -0.49819,0.49819 -0.41357,0.49148 -0.41357,0.98232 0,0.11509 0,0.23019 0,0.34528 0,0.0288 0,0.0575 0,0.0863 0,0.0288 0.0288,0.0863 0,0.0863 -0.0288,0 0,-0.0576 0,-0.0863 0,-0.0576 0,-0.11509 0,-0.17264 0,-0.10027 -0.0195,-0.35335 0,-0.4316 0.0156,-0.0624 0.0707,-0.11022 0.0863,-0.17264 0.014,-0.0558 0,-0.1151 0,-0.17264 0,-0.17264 0,-0.34528 0,-0.51793 0,-0.0389 0.0131,-0.23269 0,-0.25896 -0.10666,-0.21333 -0.0863,0.0298 -0.0863,-0.17264 0,-0.0288 -0.0288,-0.0863 0,-0.0863 0.0288,0 0,0.0576 0,0.0863 0,0.0288 0,0.0575 0,0.0863 0,0.0863 0.0386,0.18176 0,0.25896 -0.0364,0.0728 -0.13624,0.0998 -0.17264,0.17265 -0.0386,0.0772 0,0.17264 0,0.25896 0,0.20141 0,0.40282 0,0.60424 0,0.0288 0,0.0576 0,0.0863 0,0.0288 -0.0203,0.066 0,0.0863 0.0204,0.0203 0.0576,0 0.0863,0 0.0209,0 0.25619,0.003 0.25896,0 0.0407,-0.0407 -0.0407,-0.13195 0,-0.17264 0.0204,-0.0203 0.066,0.0203 0.0863,0 0.0204,-0.0203 -0.0203,-0.066 0,-0.0863 0.0204,-0.0203 0.066,0.0203 0.0863,0 0.0204,-0.0203 -0.0203,-0.066 0,-0.0863 0.0204,-0.0203 0.066,0.0203 0.0863,0 0.0204,-0.0203 -0.0203,-0.066 0,-0.0863 0.0204,-0.0203 0.066,0.0203 0.0863,0 0.0204,-0.0203 -0.0203,-0.066 0,-0.0863 0.0204,-0.0203 0.066,0.0203 0.0863,0 0.0204,-0.0203 0.009,-0.0591 0,-0.0863 -0.0548,-0.15813 -0.12712,-0.3096 -0.19067,-0.4644"
       id="path176"
       inkscape:connector-curvature="0" />
  </g>
</svg>
